/* XPM */
static char *result[] = {
/* columns rows colors chars-per-pixel */
"64 64 227 2 ",
"   c #3E2E15",
".  c #373426",
"X  c #3A3D34",
"o  c #442D03",
"O  c #4B2C02",
"+  c #4A2D0C",
"@  c #472B09",
"#  c #542D01",
"$  c #5C2E01",
"%  c #582B07",
"&  c #4D3302",
"*  c #4C3A02",
"=  c #46340B",
"-  c #4C340C",
";  c #4A3907",
":  c #533302",
">  c #5B3201",
",  c #54330B",
"<  c #5B350B",
"1  c #523A0A",
"2  c #593902",
"3  c #432E15",
"4  c #4C2E17",
"5  c #453415",
"6  c #4C3313",
"7  c #44351B",
"8  c #4A391A",
"9  c #513314",
"0  c #523A19",
"q  c #572B19",
"w  c #622D00",
"e  c #613200",
"r  c #6A3501",
"t  c #643704",
"y  c #453526",
"u  c #523A30",
"i  c #5B4313",
"p  c #46462E",
"a  c #7D6139",
"s  c #7B5958",
"d  c #796243",
"f  c #7A5C76",
"g  c #78676B",
"h  c #816132",
"j  c #BA7227",
"k  c #B4732B",
"l  c #B77328",
"z  c #B87335",
"x  c #B47C3E",
"c  c #BC7E3C",
"v  c #B87836",
"b  c #C47D3B",
"n  c #C37B31",
"m  c #816041",
"M  c #80655E",
"N  c #AC7B49",
"B  c #B57646",
"V  c #B47A45",
"C  c #BA7A45",
"Z  c #BB764C",
"A  c #B47B4B",
"S  c #BA794C",
"D  c #B87645",
"F  c #A97D53",
"G  c #AB7C5B",
"H  c #BB7654",
"J  c #B37A53",
"K  c #BA7953",
"L  c #B37A59",
"P  c #BA7758",
"I  c #855D6F",
"U  c #88626D",
"Y  c #826571",
"T  c #9F7D74",
"R  c #9C7D7A",
"E  c #B27C64",
"W  c #A27C76",
"Q  c #A6797A",
"!  c #A67B68",
"~  c #CD7F44",
"^  c #CB7F4B",
"/  c #C37A45",
"(  c #CA7E54",
")  c #D17F47",
"_  c #BF8B34",
"`  c #D48A2E",
"'  c #D7942B",
"]  c #C7843D",
"[  c #CA833C",
"{  c #CE8A3D",
"}  c #C68636",
"|  c #D48B34",
" . c #DA8E34",
".. c #D58D3C",
"X. c #DA8E3B",
"o. c #D4853A",
"O. c #CE943C",
"+. c #D39133",
"@. c #D5913A",
"#. c #DB923C",
"$. c #DD9438",
"%. c #CD862E",
"&. c #E29337",
"*. c #AB804D",
"=. c #BC854B",
"-. c #B88447",
";. c #BB8856",
":. c #BB915E",
">. c #AC8672",
",. c #AA857C",
"<. c #B5886A",
"1. c #BEA07E",
"2. c #C68344",
"3. c #CA8244",
"4. c #C3834B",
"5. c #CA814A",
"6. c #CB8C48",
"7. c #D38C43",
"8. c #DB8D42",
"9. c #D68B4B",
"0. c #CD9141",
"q. c #CD934A",
"w. c #D49243",
"e. c #DB9244",
"r. c #D3954A",
"t. c #DB9A49",
"y. c #CC8D53",
"u. c #CB8F5C",
"i. c #C58555",
"p. c #CC9A56",
"a. c #C99457",
"s. c #D39454",
"d. c #D3965A",
"f. c #D99855",
"g. c #D18E57",
"h. c #E18D42",
"j. c #E59D4A",
"k. c #E49A43",
"l. c #E49E54",
"z. c #E49F5A",
"x. c #E99B56",
"c. c #DFA658",
"v. c #DAA44E",
"b. c #E4A34C",
"n. c #E9A54B",
"m. c #E4A547",
"M. c #E4A254",
"N. c #E4A35A",
"B. c #EAA65A",
"V. c #F2AB5D",
"C. c #F4B45D",
"Z. c #C08160",
"A. c #C89664",
"S. c #D69863",
"D. c #E09762",
"F. c #DCA563",
"G. c #D9A563",
"H. c #E6AA66",
"J. c #F4AE67",
"K. c #ECB56A",
"L. c #EDB96C",
"P. c #E6B269",
"I. c #F5B461",
"U. c #FAB262",
"Y. c #F7B96E",
"T. c #EBB572",
"R. c #E9B672",
"E. c #F1B873",
"W. c #815B81",
"Q. c #935989",
"!. c #85608B",
"~. c #5393FD",
"^. c #5A92EF",
"/. c #648DF7",
"(. c #658BF9",
"). c #698AFB",
"_. c #688BF2",
"`. c #748DCF",
"'. c #BFA688",
"]. c #AEA296",
"[. c #BEAC96",
"{. c #BCAC9C",
"}. c #B2A698",
"|. c #ADABA4",
" X c #AEAEAD",
".X c #AAA6A8",
"XX c #B3ACA5",
"oX c #BAADA1",
"OX c #B2ADAC",
"+X c #B9ACA8",
"@X c #B3A7A7",
"#X c #ADB1AD",
"$X c #B4B2A6",
"%X c #B2B2AD",
"&X c #BCB3AD",
"*X c #BAB0A7",
"=X c #AEAEB2",
"-X c #AFAEB9",
";X c #B2ADB3",
":X c #ABB1B2",
">X c #B2B1B3",
",X c #B4B3BB",
"<X c #BAB6BC",
"1X c #C1AD8F",
"2X c #C2AD97",
"3X c #DEB482",
"4X c #C8B3A2",
"5X c #FFDFAD",
"6X c #FFE5AD",
"7X c #FFE6A9",
"8X c #FFE5B5",
"9X c #FEE9B5",
"0X c #FFE7B9",
"qX c #FEEAB9",
"wX c #F7ECB3",
"eX c #FEF6B5",
"rX c #FFF6BC",
"tX c #FFFDC2",
"yX c #FFF9DA",
"uX c #FFEFC7",
"iX c #FFFDE5",
"pX c #FFFDED",
"aX c #FEF5E6",
"sX c #F4F4F5",
"dX c #FFFDF4",
"fX c none",
"gX c #F5F9FC",
/* pixels */
"fXfXfXfXfXfXfXfXfXfXfXfXfXfXfXfXfXfXfXdXdXdXpXdXdXfXfXfXfXfXfXfXfXfXfXfXfXdXdXdXdXdXdXfXfXfXfXfXfXfXfXfXfXfXfXfXfXfXfXfXfXfXfXfX",
"fXfXfXfXfXfXfXfXfXfXfXfXfXfXfXfXfXfXfXpX8 9 - 0 y dXgXfXdXfXfXdXfXdXgXfXdXdX5 - 5 6 y fXfXgXfXfXfXfXfXfXfXfXfXfXfXfXfXfXfXfXfXfX",
"fXfXfXfXfXfXfXfXfXfXfXfXfXfXfXfXfXfXfXdX5 t e 2 4 dXfXfXfXfXfXfXfXgXfXfXgXiX: % O % 4 dXdXfXfXfXfXfXfXfXfXfXfXfXfXfXfXfXfXfXfXfX",
"fXfXfXfXfXfXfXfXfXfXfXfXfXfXfXfXfXfXfXdX- # 2.q.a.o p fXgXfXdXdXfXfXfXaX3 : a.w.> # - fXdXfXdXfXfXfXfXfXfXfXfXfXfXfXfXfXfXfXfXfX",
"fXfXfXfXfXfXfXfXfXfXfXfXfXfXdXdXgXfXfXfX3 t q.7.s.w 5 fXfXdXdXfXfXdXfXpX9 e r.X.$ > + fXfXfXfXfXfXfXfXfXfXfXfXfXfXfXfXfXfXfXfXfX",
"fXfXfXfXfXfXfXfXfXfXfXfXfXfXfXfXdXfXfXdX5 : #. . .} -.9 = - , 9 6 4 4 # _ b #.@.$ 2 - dXgXgXfXfXfXfXfXfXfXfXfXfXfXfXfXfXfXfXfXfX",
"fXfXfXfXfXfXfXfXfXfXfXfXfXfXgXdXdXdXdXpX@ > O.' &.%.] : : # $ # % % # w [ %.#.| e > O gXdXfXfXfXfXfXfXfXfXfXfXfXfXfXfXfXfXfXfXfX",
"fXfXfXfXfXfXfXfXfXfXfXfXfXfXfXfXsXdXdXyX2 w 6.e.8.o.n w $ $ $ w # > # r } | @.e.r e > pXaXgXgXfXfXfXfXfXfXfXfXfXfXfXfXfXfXfXfXfX",
"fXfXfXfXfXfXfXfXfXfXfXfXfXfXfXfXsXpX0 # 0.e.#.#.e.e.#.z k k k j j j k l ..$.e.| o.w.q.6 7 sXdXfXfXfXfXfXfXfXfXfXfXfXfXfXfXfXfXfX",
"fXfXfXfXfXfXfXfXfXfXfXdXfXfXfXfXdXaX+ $ e.h.X.r.7.w.7.z v k k j j j k k w.....| @.o.r.O 0 dXdXdXfXfXfXfXfXfXfXfXfXfXfXfXfXfXfXfX",
"fXfXfXfXfXfXfXfXfXfXfXfXfXfXgXfXdXdX, 2 N.V.w.w.7.@...8.7.@...X.X.X.8.7...8.7.| N.B.F.:   fXfXfXfXfXfXfXfXfXfXfXfXfXfXfXfXfXfXfX",
"fXfXfXfXfXfXfXfXfXfXfXfXfXfXgXaXpXyX: 2 H.V.e...X.X.X.X.X.X.X.X.X.X.X.X.X.X.X.X.n.B.H.# i dXdXfXfXfXfXfXfXfXfXfXfXfXfXfXfXfXfXfX",
"fXfXfXfXfXfXfXfXfXfXfXdXfXdXfX7 6 o G.c.r.e.X.#.@.@.X.X.X.X.@.X.X.X.X.X.X.X.X. .$.X.e.F.3X0 6 dXfXfXfXfXfXfXfXfXfXfXfXfXfXfXfXfX",
"fXfXfXfXfXfXfXfXfXfXfXfXgXdXfX6 O > t.M.e.@.X.@.| @.X.X.8.....X.7.X.@...@.X.|  . .@.$.M.c.> # dXfXfXfXfXfXfXfXfXfXfXfXfXfXfXfXfX",
"fXfXfXfXfXfXfXfXfXfXfXdXgXfXfX9 > # M.b.w.X. .@.| @.@...7...X...#.....@.X.@...@. . .$.M.P.e : dXfXfXfXfXfXfXfXfXfXfXfXfXfXfXfXfX",
"fXfXfXfXfXfXfXfXfXfXfXfXfXfXfX6 # $ x.x... .@.@.@.{ o...7.o.7.7.o.7.....{ ..O...@.@.X.M.G.$ # dXfXfXfXfXfXfXfXfXfXfXfXfXfXfXfXfX",
"fXfXfXfXfXfXfXfXfXfXfXfXfXfXfX4 # $ x.x.8.X.X.@.@.X.o.7.3.7.3.7.7.o.o.....{ 7.8...#.@.N.G.> : dXfXfXfXfXfXfXfXfXfXfXfXfXfXfXfXfX",
"fXfXfXfXfXfXfXfXfXfXfXdXgXfXfX6 : # z.z.e.X.X.X.7.o.7.b 2.3.3.3.2.2.] [ q.o.e.X.X.@.@.N.G.> # dXfXfXfXfXfXfXfXfXfXfXfXfXfXfXfXfX",
"fXfXfXfXfXfXfXfXfXfXfXdXfXfXfX- : : l.z.h.X.X...8.{ 7.2.3.2.~ 2.2.] [ 2.7.[ X.X.X.X.#.M.F.> # dXfXfXfXfXfXfXfXfXfXfXfXfXfXfXfXfX",
"fXfXfXfXfXfXfXfXfXfXfXdXfXfXdX6 & # l.x.h.X.#.o.8.o.o.] 6.2.2.2.3.2.2.] 7.[ X.X.X.e.o.B.P.e : dXfXfXfXfXfXfXfXfXfXfXfXfXfXfXfXfX",
"fXfXfXfXfXfXfXfXfXfXfXfXfXfXdX7 = t F.x.8.' &.7.9.X.6.] %.[ 3.3.[ [ [ [ 7.7.9.X. .e.#.m.s.: & dXfXfXfXfXfXfXfXfXfXfXfXfXfXfXfXfX",
"fXfXfXfXfXfXfXfXfXfXfXdXfXfXfXpXiXyX$ w V c 7.8.e.} [ ~ 5.3.[ 3.[ ] [ [ { [ h.' b P K > O sXpXdXfXfXfXfXfXfXfXfXfXfXfXfXfXfXfXfX",
"fXfXfXfXfXfXfXfXfXfXfXfXfXfXfXfXdXiX9 w H / 7.o.X.^ ( ( ( ^ 5.5.5.~ 3.^ 3.[ O.' =.E L > 0 fXdXfXfXfXfXfXfXfXfXfXfXfXfXfXfXfXfXfX",
"fXfXfXfXfXfXfXfXfXfXfXfXfXfXfXfXfXpX4 w P B y.g.g.^ ( i.4.5./ ^ 5.3.^ 3.3.5.u.q.F G F : 3 fXdXfXfXfXfXfXfXfXfXfXfXfXfXfXfXfXfXfX",
"fXfXfXfXfXfXfXfXfXfXfXfXfXfXfXgXfXdXd a & ; g W.U ] } 2._ } } ] [ [ [ ] [ ;.Q.W.4 : # a U dXfXfXfXfXfXfXfXfXfXfXfXfXfXfXfXfXfXfX",
"fXfXfXfXfXfXfXfXfXfXfXfXfXfXfXfXfXdXa h 9 3 s U U <.<.>.>.,.>.>.>.>.>.>.>.,.I Y u = , a d pXdXfXfXfXfXfXfXfXfXfXfXfXfXfXfXfXfXfX",
"fXfXfXfXfXfXfXfXfXfXfXfXfXdXfXfXfXdX- , g !.q = X /.~.^.).).(./.(.(.(.(.(.`.. - f !.f , 8 fXfXfXfXfXfXfXfXfXfXfXfXfXfXfXfXfXfXfX",
"fXfXfXfXfXfXfXfXfXfXfXfXfXdXdXfXfXdX: & g f q 6 . ^.~._.).)././././././.(.`.. 1 Y I U * ; gXfXfXfXfXfXfXfXfXfXfXfXfXfXfXfXfXfXfX",
"fXfXfXfXfXfXfXfXfXfXfXdXfXfXdXfXgXpX: # F L i.=.;.Q R T Q Q Q Q Q T W T W ! ;.2.L E G : = fXgXfXfXfXfXfXfXfXfXfXfXfXfXfXfXfXfXfX",
"fXfXfXfXfXfXfXfXfXfXdXgXfXfXdXgXfXpX# w A C 5./ ^ D Z B N S S S A A Z A D C 5.} Z ;.N > = fXdXfXfXfXfXfXfXfXfXfXfXfXfXfXfXfXfXfX",
"fXfXfXfXfXfXfXfXfXfXfXfXfXfXfXfXfXpX: $ J Z 5.7.7.~ 2.2.=.$ $ > $ w =.4.^ 3.y...C S A > 6 fXfXfXfXfXfXfXfXfXfXfXfXfXfXfXfXfXfXfX",
"fXfXfXfXfXfXfXfXfXfXfXfXfXfXfXfXdXaX, $ S D q...X.[ ] 2.=.: : : : > -.2.~ ~ r.w.C c V % - dXdXdXfXfXfXfXfXfXfXfXfXfXfXfXfXfXfXfX",
"fXfXfXfXfXfXfXfXfXfXfXfXfXfXfXdXdXyX: # S v ..@.@.} 2.4.=.* & * : : -.2.{ b 8.#.b _ x : - pXpXfXfXfXfXfXfXfXfXfXfXfXfXfXfXfXfXfX",
"fXfXfXfXfXfXfXfXfXfXfXfXfXfXdX7 6 : : > q.w.n.n.n.c V # 2 rXrXrXeXeXi r y.} M.b.o.+.0.# : - 9 dXfXfXfXfXfXfXfXfXfXfXfXfXfXfXfXfX",
"fXfXfXfXfXfXfXfXfXfXfXfXdXfXdX5 & : > > w.@.n.b.M.x :.: & uXrXrXrXeXi 2 ;.6.v.m.X.+.@.% * : : dXfXfXfXfXfXfXfXfXfXfXfXfXfXfXfXfX",
"fXfXfXfXfXfXfXfXfXfXfXfXgXfXfX- : > : > 0.#.C.Y.T.# * rXrX9XqXwXwXwXrXrX2 > L.I.e.+.O.% : # $ dXfXfXfXfXfXfXfXfXfXfXfXfXfXfXfXfX",
"fXfXfXfXfXfXfXfXfXfXfXfXfXgXfX= : > < > r.X.V.K.T.e * rXeXqXqXqXwXwXeXrXO > P.I.8.@.w.< : > $ dXfXfXfXfXfXfXfXfXfXfXfXfXfXfXfXfX",
"fXfXfXfXfXfXfXfXfXfXfXfXfXfXdX6 1 # < $ w.X.I.K.T.> : rXqXqXqXqXqX8X9X9X: > R.U.@. .7.# : + < dXfXfXfXfXfXfXfXfXfXfXfXfXfXfXfXfX",
"fXfXfXfXfXfXfXfXfXfXfXfXfXgXdXy @ # # $ w...I.I.T.> : qXqXqXqXqXqXqX9X9X: $ L.U.@.X.7.> > 6 @ dXfXfXfXfXfXfXfXfXfXfXfXfXfXfXfXfX",
"fXfXfXfXfXfXfXfXfXfXfXfXfXfXdX}.{.1.: > 7.@.I.K.T.> : uXqXqX8X8XqXqX8X8X& : L.U.@.X.w.# < }.2XdXfXfXfXfXfXfXfXfXfXfXfXfXfXfXfXfX",
"fXfXfXfXfXfXfXfXfXfXfXdXfXfXfX+X+X2X1 > 0.@.C.K.R.> : qXqX0XqXqXqX8X8X8X: : K.C.X.@.6.: - @XoXfXfXfXfXfXfXfXfXfXfXfXfXfXfXfXfXfX",
"fXfXfXfXfXfXfXfXfXfXfXgXdXfXfX;XOX2X& 2 7.@.C.K.R.> : qX8X0XqXqXqXqX8X0X: : L.U.+.X.7.< - ,X|.dXfXfXfXfXfXfXfXfXfXfXfXfXfXfXfXfX",
"fXfXfXfXfXfXfXfXfXfXfXfXfX>X=X-X-XoX, > v.j.C.P.R.e > :.A.qXqXqX0X0X:.A.> > L.U.b.n.N.- = =X>X#X XfXfXfXfXfXfXfXfXfXfXfXfXfXfXfX",
"fXfXfXfXfXfXfXfXfXfXfXfXfX>X:X=X-XoX, e l.v.V.P.T.$ r u.:.qXqXqX8X8XA.i.$ > P.J.b.j.l.O 5 =X>XOX XfXfXfXfXfXfXfXfXfXfXfXfXfXfXfX",
"fXfXfXfXfXfXfXfXfXfXfXfXdX%X%X=X>XoX, e c.M.r.s.a.S.u.g.S.8XqXwX9X6XS.D.d.p.a.9.b.j.f.: - =X%X X XfXfXfXfXfXfXfXfXfXfXfXfXfXfXfX",
"fXfXfXfXfXfXfXfXfXfXfXfXfX%XOX:X:XoX, e z.l.r.d.d.u.y.s.y.8XuXqX8X6XS.z.s.d.d.s.M.k.M.# =  X%X#X XgXfXfXfXfXfXfXfXfXfXfXfXfXfXfX",
"fXfXfXfXfXfXfXfXfXfXfXfXdX,XOX#X%XoX1 w D -.B.M.z.g.A.6X6X: : : : : 7X7XS.S.S.j.k Z D # 6  X%X;X XfXfXfXfXfXfXfXfXfXfXfXfXfXfXfX",
"fXfXfXfXfXfXfXfXfXfXfXfXdX;X:X%X%XoX: > L A H.B.z.d.A.6XqX: , - - - 6XwXA.A.H.B.V / ( & 9  X%X X XfXfXfXfXfXfXfXfXfXfXfXfXfXfXfX",
"fXfXfXfXfXfXfXfXfXfXfXfXdX,X=X#X%XoX: $ L K =.C C 6X8X* i '.[.{.[.1X1 : 7X7XC b B H H : 6  X>X:X XfXfXfXfXfXfXfXfXfXfXfXfXfXfXfX",
"fXfXfXfXfXfXfXfXfXfXfXfXdX>X=X#X%XoX, > J K V V V 6XqX2   oX$XXX{.[.- o 5X7Xx z B H S : 9 OX%X X XgXfXfXfXfXfXfXfXfXfXfXfXfXfXfX",
"fXfXfXfXfXfXfXfXfXfXfXfXdX-X=X#X%XoX: w K Z B A F 0XuX0   $X:X#XOXoX7 o 7X7XN C K P K : - |.>X X XfXfXfXfXfXfXfXfXfXfXfXfXfXfXfX",
"fXfXfXfXfXfXfXfXfXfXfXfXdX>X=X#X%X{.1 > C C A F F : 5 [.XX#X:X#X:XOX+X[.6 : L C L P K : 4 OX>X%X XfXfXfXfXfXfXfXfXfXfXfXfXfXfXfX",
"fXfXfXfXfXfXfXfXfXfXfXfXdX,X=X#X%XoX: > V C V A F : 5 XX;X:X X#X#X:X%X{.9 > G S J H J # 9 OX;X X.XfXfXfXfXfXfXfXfXfXfXfXfXfXfXfX",
"fXfXfXfXfXfXfXfXfXfXfXfXdX>X=X#X%X{., > A S K S V # = XX-X;X;X X:X:X>X{., > J C J H A & 6 |.;X=X XgXfXfXfXfXfXfXfXfXfXfXfXfXfXfX",
"fXfXfXfXfXfXfXfXfXfXfXfXdX;X=X#X%XoX, $ L J K S C : - $X-X;X;X+X:X:X>X2X, w A C A K H : 6 OX>X:X XfXfXfXfXfXfXfXfXfXfXfXfXfXfXfX",
"fXfXfXfXfXfXfXfXfXfXfXdXfXfXfX=XOX{.& 2 P H S A A > 5 $XOXOX;X;X=X;XOX{.& > L H S A A : 6 $X XfXfXfXfXfXfXfXfXfXfXfXfXfXfXfXfXfX",
"fXfXfXfXfXfXfXfXfXfXfXdXfXfXfX.X&XoX6 , L S S V F O   XX.X#X#X;X=X-X&XoX6 < F S C A *.O   XX>XfXfXfXfXfXfXfXfXfXfXfXfXfXfXfXfXfX",
"fXfXfXfXfXfXfXfXfXfXfXfXfXfXfX X|.&X{.'.# > $ : : 1X].OX:X;XOX:X=X#X|.&X{.'.: $ # : , 1X]. X.XfXfXfXfXfXfXfXfXfXfXfXfXfXfXfXfXfX",
"fXfXfXfXfXfXfXfXfXfXfXfXfXfXfX>X|.$XoX[.: : : , 6 4X&X>X,X%XOX:X:X#X|.$X*X{.: : % 9 4 4X&X>X=XfXfXfXfXfXfXfXfXfXfXfXfXfXfXfXfXfX",
"fXfXfXfXfXfXfXfXfXfXfXfXfXfXdX%X>X X<X@X5 5 8 y y @X>X=X:X;X;X X#X#X%X#X<X*X5 = 4 y y @X;X X,XfXfXfXfXfXfXfXfXfXfXfXfXfXfXfXfXfX",
"fXfXfXfXfXfXfXfXfXfXfXfXfXfXdXfXfXgX=X=XXX@X+X;X;X;X;X=X#X;X;X#X#X#X#X;X=X=XOXoX@X;X;X.X:XfXfXfXfXfXfXfXfXfXfXfXfXfXfXfXfXfXfXfX",
"fXfXfXfXfXfXfXfXfXfXfXfXfXfXfXfXfXsX;X=X=X,X.X,X,X-X;X X#X#X:XOX#XOX#X:X=X;X,X;X,X=X-X=X<XfXgXfXfXfXfXfXfXfXfXfXfXfXfXfXfXfXfXfX",
"fXfXfXfXfXfXfXfXfXfXfXfXfXfXfXgXgXfXgXfXfXfX<X=X X=X X#X#X;XOX:X%XOXOX:X;X=X X=XsXfXfXfXgXdXdXfXfXfXfXfXfXfXfXfXfXfXfXfXfXfXfXfX",
"fXfXfXfXfXfXfXfXfXfXfXfXfXfXfXfXdXfXfXfXfXfX#X|. X X%X:X>X:X=X;X=X=XOXOX X X;X|.fXfXdXdXfXfXfXfXfXfXfXfXfXfXfXfXfXfXfXfXfXfXfXfX"
};
