/* XPM */
static char *result[] = {
/* columns rows colors chars-per-pixel */
"64 64 6 1 ",
"  c none",
". c black",
"X c DimGray",
"o c #A37343",
"O c SaddleBrown",
"+ c gray72",
/* pixels */
"                                                                ",
"                                                                ",
"                                                                ",
"                                                                ",
"                                                                ",
"                            ........                            ",
"                         ...X.XXXX.X...                         ",
"                       ...XXXX.XX.XXXX...                       ",
"                      .XXX.XXXX..XXXX.XXX.                      ",
"                      .XXX.XXXX..XXXX.XXX.                      ",
"                     .XXXXX..........XXXXX.                     ",
"                    ..XXXX..oOOOOoOO..XXX.X.                    ",
"                   .XX.X..OOoOOOOoOOOo...XXX.                   ",
"                   .XXX.oOOOoOOOOoOOOoOO.XXX.                   ",
"                  .XXX.OoOOOoOOOOoOOOoOOO.XX..                  ",
"                  .XXX.OoOOOoOOOOoOOOoOOO.X.X.                  ",
"                  ..X.OOoOOOoOOOOoOOOoOOOo.XX.                  ",
"                 .XX..OOoOOOoOOOOoOOOoOOOo.XXX..                ",
"                 .XX.OOOoOOOoOOOOoOOOoOOOoO.XX..                ",
"                 .XX.OOOoOOOoOOOOoOOOoOOOoO.XX..                ",
"                 .XX.OOOoOOOoOOOOoOOOoOOOoO.XX..                ",
"                 ....OOOoOOOoOOOOoOOOoOOOoO.....                ",
"                 .XX.OOOoOOOoOOOOoOOOoOOOoO.XX..                ",
"                 .XX.OOOoOOOoOOOOoOOOoOOOoO.XX..                ",
"                 .XX.OOOoOOOoOOOOoOOOoOOOoO.XX..                ",
"                 .XX.OOOoOOOoOOOOoOOOoOOOoO.XX..                ",
"                 .XX.OOOoOOOoOOOOoOOOoO.....XX..                ",
"                 ....OOOoOOOoOOOOoOOOoO.+.+.....                ",
"                 .XX.OOOoOOOoOOOOoOOOoO.....XX..                ",
"                 .XX.OOOoOOOoOOOOoOOOoOOOoO.XX..                ",
"                 .XX.OOOoOOOoOOOOoOOOoOOOoO.XX..                ",
"                 .XX.OOOoOOOoOOOOoOOOoOOOoO.XX..                ",
"                 ....OOOoOOOoOOOOoOOOoOOOoO.....                ",
"                 .XX.OOOoOOOoOOOOoOOOoOOOoO.XX..                ",
"                 .XX.OO....OoOOOOoOOOoOOOoO.XX..                ",
"                 .XX.OOO..OOoOOOOoOOOoOOOoO.XX..                ",
"                 .XX.OO.oO.OoOOOOoOOOoOOOoO.XX..                ",
"                 ....OO.oO.OoOOOOoOOOoOOOoO.....                ",
"                 .XX.OOO..OOoOOOOoOOOoOOOoO.XX..                ",
"                 .XX.OOOoOOOoOOOOoOOOoOOOoO.XX..                ",
"                 .XX.OOOoOOOoOOOOoOOOoOOOoO.XX..                ",
"                 .XX.OOOoOOOoOOOOoOOOoOOOoO.XX..                ",
"                 .XX.OOOoOOOoOOOOoOOOoOOOoO.XX..                ",
"                 ....OOOoOOOoOOOOoOOOoOOOoO.....                ",
"                 .XX.OOOoOOOoOOOOoOOOoOOOoO.XX..                ",
"                 .XX.OOOoOOOoOOOOoOOOoOOOoO.XX..                ",
"                 .XX.OOOoOOOoOOOOoOOOoOOOoO.XX..                ",
"                 .XX.OOOoOOOoOOOOoOOOoOOOoO.XX..                ",
"                 ....OOOoOOOoOOOOoOOOoOOOoO.....                ",
"                 .XX.OOOoOOOoOOOOoOOOoO.....XX..                ",
"                 .XX.OOOoOOOoOOOOoOOOoO.+.+.XX..                ",
"                 .XX.OOOoOOOoOOOOoOOOoO.....XX..                ",
"                 .XX.OOOoOOOoOOOOoOOOoOOOoO.XX..                ",
"                 ....OOOoOOOoOOOOoOOOoOOOoO.....                ",
"                 .XX.OOOoOOOoOOOOoOOOoOOOoO.XX..                ",
"                 .XX.OOOoOOOoOOOOoOOOoOOOoO.XX..                ",
"                 .XX.OOOoOOOoOOOOoOOOoOOOoO.XX..                ",
"                 .XX.OOOoOOOoOOOOoOOOoOOOoO.XX..                ",
"                 .XX.OOOoOOOoOOOOoOOOoOOOoO.XX..                ",
"                 ...............................                ",
"                                                                ",
"                                                                ",
"                                                                ",
"                                                                "
};
