/* XPM */
static char *result[] = {
/* columns rows colors chars-per-pixel */
"64 64 11 1 ",
"  c #053D70",
". c #FF004C",
"X c #5532DB",
"o c #ED0C82",
"O c #FF24AE",
"+ c #8751FF",
"@ c #A379FF",
"# c #FF79F8",
"$ c #EC93B5",
"% c #B898FF",
"& c None",
/* pixels */
"&&&&&&&&&&&&&&&&&&&&&&&&&&&&&&&&&&&&&&&&&&&&&&&&&&&&&&&&&&&&&&&&",
"&&&&&&&&&&&&&&&&&&&&&&&&&&&&&&&&&&&&&&&&&&&&&&&&&&&&&&&&&&&&&&&&",
"&&&&&&&&&&&&&&&&&&&&&&&&&&&&&&&&&&&&&&&&&&&&&&&&&&&&&&&&&&&&&&&&",
"&&&&&&&&&&&&&&&&&&&&&&&&&&&&&&&&&&&&&&&&&&&&&&&&&&&&&&&&&&&&&&&&",
"&&&&&&&&&&&&&&&&&&&&&&&&&&&&&&&&&&&&&&&&&&&&&&&&&&&&&&&&&&&&&&&&",
"&&&&&&&&&&&&&&&&&&&&&&&&&&&&&&&&&&&&&&&&&&&&&&&&&&&&&&&&&&&&&&&&",
"&&&&&&&&&&&&&&&&&&&&&&&&&&&  &&&&&&&&&&&&&&&&  &&&&&&&&&&&&&&&&&",
"&&&&&&&&&&&&&&&&&&&&&&&&&&&  &&&&&&&&&&&&&&&&  &&&&&&&&&&&&&&&&&",
"&&&&&&&&&&&&&&&&&&&&&&&&&& ++  &&&&&&&&&&&&  @@  &&&&&&&&&&&&&&&",
"&&&&&&&&&&&&&&&&&&&&&&&&&& ++  &&&&&&&&&&&&  @@  &&&&&&&&&&&&&&&",
"&&&&&&&&&&&&&&&&&&&&&&&&&& ++++    &&&&      @@  &&&&&&&&&&&&&&&",
"&&&&&&&&&&&&&&&&&&&&&&&&&& ++++    &&&&      @@  &&&&&&&&&&&&&&&",
"&&&&&&&&&&&&&&&&&&&&&&&&&& ++@@%%%%    %%%%%%@@  &&&&&&&&&&&&&&&",
"&&&&&&&&&&&&&&&&&&&&&&&&&& ++@@%%%%    %%%%%%@@  &&&&&&&&&&&&&&&",
"&&&&&&&&&&&&&&&&&&&&&&&&XX ++@@@@%%%%%%%%%%@@@@  &&&&&&&&&&&&&&&",
"&&&&&&&&&&&&&&&&&&&&&&&&XX ++@@@@%%%%%%%%%%@@@@  &&&&&&&&&&&&&&&",
"&&&&&&&&&&&&&&&&&&&&&&XX@@ ++@@@@..%%%%%%..@@@@  &&&&&&&&&&&&&&&",
"&&&&&&&&&&&&&&&&&&&&&&XX@@ ++@@@@..%%%%%%..@@@@  &&&&&&&&&&&&&&&",
"&&&&&&&&&&&&&&&&&&&&XX@@@@ ++@@@@..%%%%%%..@@@@  &&&&&&&&&&&&&&&",
"&&&&&&&&&&&&&&&&&&&&XX@@@@ ++@@@@..%%%%%%..@@@@  &&&&&&&&&&&&&&&",
"&&&&&&&&&&&&&&&&&&XXXX@@@@ ++@@@@@@@@$$@@@@@@%%  &&&&&&&&&&&&&&&",
"&&&&&&&&&&&&&&&&&&XXXX@@@@ ++@@@@@@@@$$@@@@@@%%  &&&&&&&&&&&&&&&",
"&&&&&&&&&&&&&&&&XX@@@@@@@@   ++@@@@@@@@@@@@%%  &&&&&&&&&&&&&&&&&",
"&&&&&&&&&&&&&&&&XX@@@@@@@@   ++@@@@@@@@@@@@%%  &&&&&&&&&&&&&&&&&",
"&&&&&&&&&&&&&&&&XX@@@@@@       %%%%%%%%%%%%  &&&&&&&&&&&&&&&&&&&",
"&&&&&&&&&&&&&&&&XX@@@@@@       %%%%%%%%%%%%  &&&&&&&&&&&&&&&&&&&",
"&&&&&&&&&&&&&&&&XX@@@@@@  +++++            @@  &&&&&&&&&&&&&&&&&",
"&&&&&&&&&&&&&&&&XX@@@@@@  +@@@@@@@@@@@@@@%%@@  &&&&&&&&&&&&&&&&&",
"&&&&&&&&&&&&&&&&XX@@@@@@  +@@@@@@@@@@@@@@%%@@  &&&&&&&&&&&&&&&&&",
"&&&&&&&&&&&&&&XXXX@@@@    +@@  @@@@@@@@%%  %%@@  &&&&&&&&&&&&&&&",
"&&&&&&&&&&&&&&XXXX@@@@    +@@  @@@@@@@@%%  %%@@  &&&&&&&&&&&&&&&",
"&&&&&&&&&&&&&&XX@@@@@@  ++ @@  @@@@@@%%  &&  @@  &&&&&&&&&&&&&&&",
"&&&&&&&&&&&&&&XX@@@@@@  ++ @@  @@@@@@%%  &&  @@  &&&&&&&&&&&&&&&",
"&&&&&&&&&&&&&&XX@@@@@@  ++ @@@@  @@@@%%  &&  @@  &&&&&&&&&&&&&&&",
"&&&&&&&&&&&&&&XX@@@@@@  ++ @@@@  @@@@%%  &&  @@  &&&&&&&&&&&&&&&",
"&&&&&&&&&&&&&&XX@@@@@@  ++@  @@  @@%%%%  &&&&    &&&&&&&&&&&&&&&",
"&&&&&&&&&&&&&&XX@@@@@@  ++@  @@  @@%%%%  &&&&    &&&&&&&&&&&&&&&",
"&&&&&&&&&&&&&&XX@@@@@@  ++@@@  @@@@%%  &&&&&&&&&&&&&&&&&&&&&&&&&",
"&&&&&&&&&&&&&&XX@@@@@@  ++@@@  @@@@%%  &&&&&&&&&&&&&&&&&&&&&&&&&",
"&&&&&&&&&&&&&&XX@@@@@@  ++@@@@@@@@@%%  &&&&&&&&&&&&&&&&&&&&&&&&&",
"&&&&&&&&&&&&&&XX@@@@@@  ++@@@@@@@@@%%  &&&&&&&&&&&&&&&&&&&&&&&&&",
"&&&&&&&&&&&&&&&&XX@@@@  ++@@@@@@@@@%%  &&&&&&&&&&&&&&&&&&&&&&&&&",
"&&&&&&&&&&&&&&&&XX@@@@  ++@@@@@@@@@%%  &&&&&&&&&&&&&&&&&&&&&&&&&",
"&&&&&&&&&&&&&&&&XXXXXX  ++@@@@@@@@@@@%%  &&&&&&&&&&&&&&&&&&&&&&&",
"&&&&&&&&&&&&&&&&XXXXXX  ++@@@@@@@@@@@%%  &&&&&&&&&&&&&&&&&&&&&&&",
"&&&&&&&&&&&&&&&&oooooo  @@@@@@@@@@@@@@@%%  &&&&&&&&&&&&&&&&&&&&&",
"&&&&&&&&&&&&&&&&oooooo  @@@@@@@@@@@@@@@%%  &&&&&&&&&&&&&&&&&&&&&",
"&&&&&&&&&&&&&&ooooOO  @@@@           @@@@%%  &&&&&&&&&&&&&&&&&&&",
"&&&&&&&&&&&&&&ooooOO  @@@@           @@@@%%  &&&&&&&&&&&&&&&&&&&",
"&&&&&&&&&&&&&&ooOOOO  @@@@ &&&&&&&&&&    %%  &&&&&&&&&&&&&&&&&&&",
"&&&&&&&&&&&&&&ooOOOO  @@@@ &&&&&&&&&&    %%  &&&&&&&&&&&&&&&&&&&",
"&&&&&&&&&&&&&&ooOO##  @@  &&&&&&&&&&&&&&&    &&&&&&&&&&&&&&&&&&&",
"&&&&&&&&&&&&&&ooOO##  @@  &&&&&&&&&&&&&&&    &&&&&&&&&&&&&&&&&&&",
"&&&&&&&&&&&&&&&&OO####  &&&&&&&&&&&&&&&&&&&&&&&&&&&&&&&&&&&&&&&&",
"&&&&&&&&&&&&&&&&OO####  &&&&&&&&&&&&&&&&&&&&&&&&&&&&&&&&&&&&&&&&",
"&&&&&&&&&&&&&&&&OO####&&&&&&&&&&&&&&&&&&&&&&&&&&&&&&&&&&&&&&&&&&",
"&&&&&&&&&&&&&&&&OO####&&&&&&&&&&&&&&&&&&&&&&&&&&&&&&&&&&&&&&&&&&",
"&&&&&&&&&&&&&&&&&&##&&&&&&&&&&&&&&&&&&&&&&&&&&&&&&&&&&&&&&&&&&&&",
"&&&&&&&&&&&&&&&&&&##&&&&&&&&&&&&&&&&&&&&&&&&&&&&&&&&&&&&&&&&&&&&",
"&&&&&&&&&&&&&&&&&&&&&&&&&&&&&&&&&&&&&&&&&&&&&&&&&&&&&&&&&&&&&&&&",
"&&&&&&&&&&&&&&&&&&&&&&&&&&&&&&&&&&&&&&&&&&&&&&&&&&&&&&&&&&&&&&&&",
"&&&&&&&&&&&&&&&&&&&&&&&&&&&&&&&&&&&&&&&&&&&&&&&&&&&&&&&&&&&&&&&&",
"&&&&&&&&&&&&&&&&&&&&&&&&&&&&&&&&&&&&&&&&&&&&&&&&&&&&&&&&&&&&&&&&",
"&&&&&&&&&&&&&&&&&&&&&&&&&&&&&&&&&&&&&&&&&&&&&&&&&&&&&&&&&&&&&&&&"
};
