/* XPM */
static char *result[] = {
/* columns rows colors chars-per-pixel */
"64 64 227 2 ",
"   c #040100",
".  c #0D0000",
"X  c #140000",
"o  c #1A0400",
"O  c #3E2D02",
"+  c #2E211B",
"@  c #3C390A",
"#  c #3D3424",
"$  c #313339",
"%  c #3D3238",
"&  c #313032",
"*  c #432C03",
"=  c #4B2D01",
"-  c #4B2B08",
";  c #5C2600",
":  c #552C01",
">  c #5C2E00",
",  c #552B09",
"<  c #443101",
"1  c #4D3304",
"2  c #4D330B",
"3  c #483909",
"4  c #543302",
"5  c #5B3101",
"6  c #543902",
"7  c #54330B",
"8  c #5C350B",
"9  c #563C0C",
"0  c #5A390C",
"q  c #5D3805",
"w  c #432E11",
"e  c #4C3413",
"r  c #45351C",
"t  c #4B351C",
"y  c #4F3A1A",
"u  c #473816",
"i  c #543112",
"p  c #533918",
"a  c #612D00",
"s  c #642A06",
"d  c #623201",
"f  c #63340C",
"g  c #683902",
"h  c #463725",
"j  c #543E24",
"k  c #402D26",
"l  c #3D4401",
"z  c #57401E",
"x  c #564205",
"c  c #7E521A",
"v  c #6D4716",
"b  c #544229",
"n  c #464538",
"m  c #7E5323",
"M  c #745423",
"N  c #695333",
"B  c #795A57",
"V  c #7D5C65",
"C  c #7F646D",
"Z  c #7C6376",
"A  c #844E1A",
"S  c #845214",
"D  c #83521D",
"F  c #8C5418",
"G  c #925510",
"H  c #AC782B",
"J  c #B4752D",
"K  c #B8742C",
"L  c #B17928",
"P  c #AB7534",
"I  c #AC7935",
"U  c #AD753C",
"Y  c #A9773D",
"T  c #B37533",
"R  c #B97332",
"E  c #B3743B",
"W  c #B47639",
"Q  c #895D30",
"!  c #C77D37",
"~  c #FF762D",
"^  c #A77742",
"/  c #B67A46",
"(  c #865C72",
")  c #866377",
"_  c #F0785A",
"`  c #BC853D",
"'  c #BD8437",
"]  c #CC8335",
"[  c #C58538",
"{  c #D58D3A",
"}  c #DA8D3C",
"|  c #D78C35",
" . c #D99139",
".. c #D6872A",
"X. c #E3943D",
"o. c #EAA73E",
"O. c #BB894B",
"+. c #AF8150",
"@. c #BC8C51",
"#. c #B78D59",
"$. c #BC9159",
"%. c #B58E64",
"&. c #B29E6B",
"*. c #B89262",
"=. c #B99877",
"-. c #AB9B73",
";. c #C88F4C",
":. c #C88C46",
">. c #D38E43",
",. c #D88B46",
"<. c #CE914A",
"1. c #D49243",
"2. c #D2914A",
"3. c #D99547",
"4. c #C28D53",
"5. c #C58A58",
"6. c #D38956",
"7. c #CB9557",
"8. c #D49E5E",
"9. c #E68244",
"0. c #E39845",
"q. c #E7A74B",
"w. c #E7A455",
"e. c #DD8361",
"r. c #C29368",
"t. c #C98E79",
"y. c #C08B61",
"u. c #DAA364",
"i. c #DBAE7C",
"p. c #D5AD78",
"a. c #DBB37D",
"s. c #DEB879",
"d. c #D0A76C",
"f. c #E6AB68",
"g. c #EDB565",
"h. c #F2B569",
"j. c #E1AE7D",
"k. c #EBB675",
"l. c #EDBE7C",
"z. c #E8B778",
"x. c #F2BB7A",
"c. c #FABE7D",
"v. c #F6B972",
"b. c #DEA84E",
"n. c #FBC767",
"m. c #F5C07B",
"M. c #7E5984",
"N. c #815A87",
"B. c #5D8DFF",
"V. c #5D92F3",
"C. c #628CFD",
"Z. c #628EF7",
"A. c #6090F6",
"S. c #B59983",
"D. c #BDAC8D",
"F. c #BBA78E",
"G. c #AEA391",
"H. c #B6AE9F",
"J. c #BDAC9C",
"K. c #B3A595",
"L. c #B0B19F",
"P. c #A6ADAC",
"I. c #ADADAD",
"U. c #ADA7A2",
"Y. c #B5AEA5",
"T. c #BAACA3",
"R. c #B2AEAC",
"E. c #B7A7A7",
"W. c #ACB1AE",
"Q. c #AFB1A6",
"!. c #BBB1A3",
"~. c #B8B3AA",
"^. c #AEAFB2",
"/. c #ACAEB9",
"(. c #A7AFB2",
"). c #B1ADB2",
"_. c #B9AAB1",
"`. c #AAB1B3",
"'. c #B3B2B1",
"]. c #B9BAB8",
"[. c #D8AD87",
"{. c #C6B28A",
"}. c #DAB783",
"|. c #C7B397",
" X c #ECAE84",
".X c #EBBD83",
"XX c #E8BA87",
"oX c #F0B98A",
"OX c #C4B4AE",
"+X c #E7C181",
"@X c #EACB99",
"#X c #ECD49A",
"$X c #F9D598",
"%X c #FEC180",
"&X c #FFE19F",
"*X c #E2D5A2",
"=X c #F9DAA8",
"-X c #EEDFB4",
";X c #EBD2AC",
":X c #FFE5A6",
">X c #FFEDAD",
",X c #FDE5A9",
"<X c #FFFEAB",
"1X c #FFF7A9",
"2X c #FEE6B5",
"3X c #FFEBB4",
"4X c #FEE6BB",
"5X c #FEEBBB",
"6X c #F4ECBD",
"7X c #FFF3BB",
"8X c #FEF9BB",
"9X c #FBF6B7",
"0X c #EEE2B0",
"qX c #FEE9C3",
"wX c #F6E7C0",
"eX c #FEF3C4",
"rX c #FFFFCD",
"tX c #FFFADD",
"yX c #FFEFD7",
"uX c #FFFCE4",
"iX c #FFFDEC",
"pX c #FEF7EA",
"aX c #FFFEF4",
"sX c #F6FEFD",
"dX c none",
"fX c #F6F6F1",
"gX c #EEF4F2",
/* pixels */
"dXdXdXdXdXdXdXdXdXdXdXdXdXdXdXdXdXdXdXdXdXdXaXdXdXdXaXdXdXaXuXuXuXaXdXdXsXdXdXaXaXdXdXdXdXdXdXdXdXdXdXdXdXdXdXdXdXdXdXdXdXdXdXdX",
"dXdXdXdXdXdXdXdXdXdXdXdXdXdXdXdXdXdXdXdXdXdXdXdXdXdXdXaXiXr y 2 p r iXfXdXdXdXdXdXdXdXdXdXdXdXdXdXdXdXdXdXdXdXdXdXdXdXdXdXdXdXdX",
"dXdXdXdXdXdXdXdXdXdXdXdXdXdXdXdXdXdXdXdXdXdXdXdXdXdXaXpXtXO 3 3 6 O tXuXaXdXdXdXdXdXdXdXdXdXdXdXdXdXdXdXdXdXdXdXdXdXdXdXdXdXdXdX",
"dXdXdXdXdXdXdXdXdXdXdXdXdXdXdXdXdXdXdXdXdXdXdXdXaXdXaXh y rX9X9X9XrXO b aXaXdXdXsXdXdXdXdXdXdXdXdXdXdXdXdXdXdXdXdXdXdXdXdXdXdXdX",
"dXdXdXdXdXdXdXdXdXdXdXdXdXdXdXdXdXdXdXdXdXsXsXdXdXaXuXy 3 8X1X1X1X8X< p pXpXdXsXsXdXdXdXdXdXdXdXdXdXdXdXdXdXdXdXdXdXdXdXdXdXdXdX",
"dXdXdXdXdXdXdXdXdXdXdXdXdXdXdXaXdXaXsXdXdXdXsXaXj i q }.}.8X<X<X<X8X%.%.> : p dXsXdXsXdXsXdXdXdXaXdXsXdXdXdXdXdXdXdXdXdXdXdXdXdX",
"dXdXdXdXdXdXdXdXdXdXdXdXsXdXdXaXdXdXsXsXsXdXdXaX- , : a.}.8X<X<X<X9X%.y.a ; , aXsXdXsXdXdXdXaXaXdXdXsXdXdXdXdXdXdXdXdXdXdXdXdXdX",
"dXdXdXdXdXdXdXdXdXdXdXdXdXdXdXaXdXdXdXdXdXaXpXuX9 * 5  XXX7XeX8X8X7X$.6.a - x uXiXaXdXdXsXdXdXaXdXdXdXdXdXdXdXdXdXdXdXdXdXdXdXdX",
"dXdXdXdXdXdXdXdXdXdXdXdXdXdXdXdXdXsXdXdXdXaXh - < x >  X XqX9X6XqX4X5.6.a 8 < < w aXdXdXsXdXdXdXdXdXsXdXdXdXdXdXdXdXdXdXdXdXdXdX",
"dXdXdXdXdXdXdXdXdXdXdXdXsXdXdXdXdXdXdXdXaXpX0 4 6 6 >  X X4X6XwX4X2X@.6.> 5 9 4 4 uXaXdXdXdXdXdXdXdXdXdXdXdXdXdXdXdXdXdXdXdXdXdX",
"dXdXdXdXdXdXdXdXdXdXdXdXdXdXdXdXdXdXdXaXr 2 : 5 Y Y ^ a d [.}.}.}.i.d s U / Y 5 : 2 u # dXdXdXdXdXdXdXdXdXdXdXdXdXdXdXdXdXdXdXdX",
"dXdXdXdXdXdXdXdXdXdXdXdXdXaXdXdXdXdXaXiXe 1 5 5 / ^ U > 5 l.}.XXz.XX: a W W / d ; 1 e r fXdXdXdXdXdXdXdXdXdXdXdXdXdXdXdXdXdXdXdX",
"dXdXdXdXdXdXdXdXdXdXdXdXdXaXdXdXdXdXaXuX2 5 q ; / / / ; : d..Xz..Xp.g 5 U O.T ; ; 5 2 u aXsXdXdXdXaXdXdXdXdXdXdXdXdXdXdXdXdXdXdX",
"dXdXdXdXdXdXdXdXdXdXdXdXdXdXdXdXdXdXaXiX4 5 1.:.s d > P P a q : 8 > Y I a g > :.[ 5 4 e aXdXdXdXdXdXdXdXdXdXdXdXdXdXdXdXdXdXdXdX",
"dXdXdXdXdXdXdXdXdXdXdXdXdXdXdXdXdXdXaXiX6 a  .<.; 5 > W W a , 7 , a W T ; 5 : { | d 6 w aXdXdXdXdXdXdXdXdXdXdXdXdXdXdXdXdXdXdXdX",
"dXdXdXdXdXdXdXdXdXdXdXdXdXdXdXdXsXaXaXiXi 5 1.1.1.1.;.5 : 5 6 3 2 5 5 : <.2.2.1. .d 7 e aXaXdXdXdXsXdXdXdXdXdXdXdXdXdXdXdXdXdXdX",
"dXdXdXdXdXdXdXdXdXdXdXdXdXsXsXdXdXpXiXyX5 a } 1.} } 2.5 5 5 5 1 5 d 5 5 2.} } 1. .a ; p iXiXsXdXaXsXdXdXdXdXdXdXdXdXdXdXdXdXdXdX",
"dXdXdXdXdXdXdXdXdXdXdXdXdXdXdXdXdXiXuXtX5 a } 1.} | >.: 5 d : : 5 a d : { } } 2.X.a d : uXiXdXdXaXdXdXdXdXdXdXdXdXdXdXdXdXdXdXdX",
"dXdXdXdXdXdXdXdXdXdXdXdXdXdXdXaXdXt e f w.w.} 1.[ [ [ P P J U U P P P P [ [ [ 1.} w.w.u.2 t dXaXaXdXaXdXdXdXdXdXdXdXdXdXdXdXdXdX",
"dXdXdXdXdXdXdXdXdXdXdXdXdXdXdXaXaXe 7 : w.q.} >.` ' ` L J K R R R K J H ' ' [ >.} q.w.f.7 e aXaXdXdXdXdXdXdXdXdXdXdXdXdXdXdXdXdX",
"dXdXdXdXdXdXdXdXdXdXdXdXdXsXsXaXaXe 5 > } } { 3.:X&X>X' ! ! ! ! ! ! ] ' >X&X:X2.9.} { <.8 e iXaXaXdXdXdXdXdXdXdXdXdXdXdXdXdXdXdX",
"dXdXdXdXdXdXdXdXdXdXdXdXsXsXdXpXuX0 5 d 3.>.,.2.2X5X5X` [ { ! | ! ] ! O.7XeX>X2.>.>.1.<.5 0 uXpXaXsXsXdXdXdXdXdXdXdXdXdXdXdXdXdX",
"dXdXdXdXdXdXdXdXdXdXdXdXdXdXpX- 7 8.7.4.v.h.c.c.X X X S G :.X.X.3.:.G S X o o c.v.v.v.m.7.7.0 - j dXdXsXdXdXdXdXdXdXdXdXdXdXdXdX",
"dXdXdXdXdXdXdXdXdXdXdXdXdXfXaX0 : :.;.<.v.oXv.x.X     F S :.| ..| :.G F     X x.c.m.v.v.;.:.: 0 w fXdXdXdXdXdXdXdXdXdXdXdXdXdXdX",
"dXdXdXdXdXdXdXdXdXdXdXdXaXaXuX: > 2.>.<.m..Xc.x.X     D D 7.| | | <.S m     . l.l.l.c.v.:.2.> : 0 aXdXdXdXdXdXdXdXdXdXdXdXdXdXdX",
"dXdXdXdXdXdXdXdXdXdXdXdXdXsXiX> : .Xx..X4X2X+X+X.   X M M 2.X. .0.3.D M X .   m..X2X4X2Xx..X: 5 2 dXsXdXdXdXdXdXdXdXdXdXdXdXdXdX",
"dXdXdXdXdXdXdXdXdXdXdXdXdXsXaX: 5 XXx.l.5X2XoXk.X X o m m ,.>.{ ,.,.D m o o X k. X2X4X2Xx..X5 : 2 dXdXdXdXdXdXdXdXdXdXdXdXdXdXdX",
"dXdXdXdXdXdXdXdXdXdXdXdXdXdXiX5 5 m.x.l.qX2X+Xg.d.}.d.q.b.0.| { | 0.3.q.8.p.d.g.h.2XqX2Xx.m.4 5 2 dXdXdXdXdXdXdXdXdXdXdXdXdXdXdX",
"dXdXdXdXdXdXdXdXdXdXdXdXdXdXiX5 4 m.l.m.wX4XoXc.f.u.w.o.q.2.7.4.4.<.q.o.w.w.f.x.x.4XqX4Xz.m.5 5 2 dXdXdXdXdXdXdXdXdXdXdXdXdXdXdX",
"dXdXdXdXdXdXdXdXdXdXdXdXdXdXaX5 6 }.l..XqX4X+Xc.u.u.q.o.q.7.*.*.r.7.b.o.w.f.u.c..X4XqX4Xm.+X4 , i dXdXdXdXdXdXdXdXdXdXdXdXdXdXdX",
"dXdXdXdXdXdXdXdXdXdXdXdXdXsXaXi < >X,X>XwX4X=X$Xk.k.h.n.n.v b b j v m.n.g.h.k.$X=X2XwX2X0X>X= 0 i fXdXdXdXdXdXdXdXdXdXdXdXdXdXdX",
"dXdXdXdXdXdXdXdXdXdXdXdXdXdXfXi z 4X9X=X-X4X;X#Xz.k.k.n.g.N n n % N s.n.k.z.z.,X=X4X-XeX9X4Xj t j sXdXdXdXdXdXdXdXdXdXdXdXdXdXdX",
"dXdXdXdXdXdXdXdXdXdXdXdXdXsXdXF.F.u = 5 eX2X*X*Xa.j.i.S S + $ $ $ + Q D }. Xa.-X-X2XeX2X= u F.F.K.sXdXdXdXdXdXdXdXdXdXdXdXdXdXdX",
"dXdXdXdXdXdXdXdXdXdXdXdXfXsXsXK.T.r 6 = 9X3X@X*Xi.j.[.S c & $ & & & M c [.[.i.0X=X>X5XeX7 r T.K.H.sXsXdXdXdXdXdXdXdXdXdXdXdXdXdX",
"dXdXdXdXdXdXdXdXdXdXdXdXdXsXsX_.!.e 1 7 4 : @X#Xa.p.|.&.*.6._ } 9.6.*.&.|.[.a.*X#X1 5 : 1 e !.~.R.sXdXdXdXdXdXdXdXdXdXdXdXdXdXdX",
"dXdXdXdXdXdXdXdXdXdXdXdXdXsXsXI.Y.2 6 9 > q @X*Xa.p.|.-.=.9.~ ~ ~ 9.r.=.|.{.a.*X@Xq 5 : 6 2 Y.I.R.sXdXdXdXdXdXdXdXdXdXdXdXdXdXdX",
"dXdXdXdXdXdXdXdXdXdXdXdXdXsXgXR.Y.2 6 = s q @X;Xa.p.{.=.S._ _ _ _ e.S.=.{.{.}.;X@X8 s f 6 2 U.).OXsXdXdXdXdXdXdXdXdXdXdXdXdXdXdX",
"dXdXdXdXdXdXdXdXdXdXdXdXI.`.].R.~.2 6 4 D c s f : 5 3 =.S.=.t.S.t.t.S.=.3 3 : 8 a c m m 4 7 ~.R.U.`.I.dXdXdXdXdXdXdXdXdXdXdXdXdX",
"dXdXdXdXdXdXdXdXdXdXdXdXR.P.P.'.Q.2 4 = A D q 5 1 l @ =.S.-.&.&.&.-.S.=.@ l 1 5 > m F Q 4 3 Y.).'.P.^.dXdXdXdXdXdXdXdXdXdXdXdXdX",
"dXdXdXdXdXdXdXdXdXdXdXdX).`.W.).Y.1 4 5 / ^ 5 ; B ) ( , s t 7 7 7 i i > V ) B ; : ^ E ^ 4 1 Q.R.R.(.).dXdXdXdXdXdXdXdXdXdXdXdXdX",
"dXdXdXdXdXdXdXdXdXdXdXdX).W.W.R.Q.1 4 5 W Y : f ( M.N.d d i 7 > , i 5 s ) N.( f f ^ E U 4 2 Q.R.R.W.).dXdXdXdXdXdXdXdXdXdXdXdXdX",
"dXdXdXdXdXdXdXdXdXdXdXdXR.`.W.).Y.7 5 5 W I 6 6 B Z ( # 3 # u 3 u # u r C Z B 4 6 I W E 4 2 Y.R.R.`.R.dXdXdXdXdXdXdXdXdXdXdXdXdX",
"dXdXdXdXdXdXdXdXdXdXdXdXR.`.W.).Y.6 5 : R T 4.4.= 6 % A.C.B.V.A.V.B.B.V.% e = #.@.W R E 5 2 Y.).I.`.).dXdXdXdXdXdXdXdXdXdXdXdXdX",
"dXdXdXdXdXdXdXdXdXdXdXdX).W.W.).Y.2 4 5 R L 4.+.4 0 # V.V.A.C.C.C.A.A.V.# , 4 / @.T R W 5 1 Y.).R.W.R.dXdXdXdXdXdXdXdXdXdXdXdXdX",
"dXdXdXdXdXdXdXdXdXdXdXdXR.W.W.).W.2 4 5 W J P T E ^ ^ k h # h h h h h # ^ U E T I P T W 4 2 Q.R.I.`.R.dXdXdXdXdXdXdXdXdXdXdXdXdX",
"dXdXdXdXdXdXdXdXdXdXdXdXR.W.W.).R.2 4 5 W T W K R T T 5 4 = = 7 * - 6 5 H L R J T W T T 4 e Y.I.'.(.Y.dXdXdXdXdXdXdXdXdXdXdXdXdX",
"dXdXdXdXdXdXdXdXdXdXdXdXR.W.W.).Y.2 5 : R T W J K K L q 7 z r t u b = q H L J K E E J T 4 e Y.R.I.`.Y.dXdXdXdXdXdXdXdXdXdXdXdXdX",
"dXdXdXdXdXdXdXdXdXdXdXsXY.W.W.).Y.2 5 > R J E R T J H < 9 OXOXE.OXOXu = H L R R E R K T : 7 Y.R.'.(.Y.dXdXdXdXdXdXdXdXdXdXdXdXdX",
"dXdXdXdXdXdXdXdXdXdXdXdXR.W.W.R.Y.7 5 5 R K R K W T ^ t r '.R.).).R.h t ^ I R K R T J J : 7 H.R.R./.I.dXdXdXdXdXdXdXdXdXdXdXdXdX",
"dXdXdXdXdXdXdXdXdXdXdXdX^.`.W.R.Y.4 5 : R J K K a s 4 T.H.).R.I.^.^.Y.T.4 d a K J T K T 5 7 H.R.R.`.I.dXdXdXdXdXdXdXdXdXdXdXdXdX",
"dXdXdXdXdXdXdXdXdXdXdXdXW.W.`.R.Y.7 4 5 W P H L s ; p _.Y.`.W.W.I.^.I._.t 8 a L L P T P 5 7 H.R.R.(.Q.dXdXdXdXdXdXdXdXdXdXdXdXdX",
"dXdXdXdXdXdXdXdXdXdXdXdX^.(.W._.Y.1 4 5 @.@.O.O.8 , e R.W.`.R.R.W.^.I.R.e 1 d @.O.@.O.O.: 2 H.R.R.`.R.dXdXdXdXdXdXdXdXdXdXdXdXdX",
"dXdXdXdXdXdXdXdXdXdXdXdX).W.W.R.R.2 4 q $.#.$.$.8 , u Y.Q.(.`.).).^.W.Y.e 1 8 $.#.#.4.@.4 2 Y.R.R.`.R.dXdXdXdXdXdXdXdXdXdXdXdXdX",
"dXdXdXdXdXdXdXdXdXdXdXdX^.`.W.R.T.2 1 q *.#.%.#.8 1 3 H.L.^././././.W.H.3 < 0 *.%.%.$.+.4 e Y.E.R./.I.dXdXdXdXdXdXdXdXdXdXdXdXdX",
"dXdXdXdXdXdXdXdXdXdXdXsXdXdXdXY.J.w < 9 5X>X3X3X9 * e T.Y.)./././.).R.J.w e 9 5X>X>X9X=X< w J.E.'.dXsXdXdXdXdXdXdXdXdXdXdXdXdXdX",
"dXdXdXdXdXdXdXdXdXdXdXdXdXdXdXE.J.r p 2 ,X:X,X,X2 e r T.E.)././.(.^.R.T.r e 2 ,X>X,X,X2Xe r J.Y.R.dXdXdXdXdXdXdXdXdXdXdXdXdXdXdX",
"dXdXdXdXdXdXdXdXdXdXdXdXdXdXdXI.Y.Y.|.D.< < 1 O D.|.Y.Y.R.`.`.R.).).R.R.!.K.D.O 7 < * < |.Q.Y.I.'.dXdXdXdXdXdXdXdXdXdXdXdXdXdXdX",
"dXdXdXdXdXdXdXdXdXdXdXdXdXdXdXP.`.'.~.K.w 2 - w K.~.'.`.`.R.R.R.R.`.`.`.'.Q.G.w e - w b ~.'.`.(.`.dXdXdXdXdXdXdXdXdXdXdXdXdXdXdX",
"dXdXdXdXdXdXdXdXdXdXdXdXaXdXsX(.`.P.Q.!.r e y r ~.Q.(.(.`.W.R.Y.Y.`.`.`.P.I.!.r t i r # R.W.`.`.`.dXaXdXdXdXdXdXdXdXdXdXdXdXdXdX",
"dXdXdXdXdXdXdXdXdXdXdXdXdXdXdXsXsX`.W.R.T.J.J.T.Q.`.`.`.`.W.R.R.Y.`.`.`.`.`.I.T.J.J.T.Y.`.`.sXsXdXdXdXdXdXdXdXdXdXdXdXdXdXdXdXdX",
"dXdXdXdXdXdXdXdXdXdXdXdXdXdXdXdXsX`.).^.R.R.R.).'.^.^.`.`.).R.R.).I.).`.W.`.).R.R.R.R.).^.^.dXdXdXdXdXdXdXdXdXdXdXdXdXdXdXdXdXdX",
"dXdXdXdXdXdXdXdXdXdXdXdXdXdXdXdXdXdXdXdXdXdX).).`.'.I.W.W.^./.).^.^.'.W.W.W.'.).^.dXdXdXdXsXdXdXdXdXdXdXdXdXdXdXdXdXdXdXdXdXdXdX",
"dXdXdXdXdXdXdXdXdXdXdXdXdXdXdXdXdXaXdXdXdXsX/./.'.W.Y.R.R.)./.)./.).R.R.Y.R.^././.dXsXdXdXdXaXdXdXdXdXdXdXdXdXdXdXdXdXdXdXdXdXdX",
"dXdXdXdXdXdXdXdXdXdXdXdXdXdXdXaXaXdXdXdXdXdX/.(.^.R.R.R.R.)./././.^.`.R.R.R.).(./.sXdXdXdXaXdXaXdXdXdXdXdXdXdXdXdXdXdXdXdXdXdXdX"
};
