/* XPM */
static char *result[] = {
/* columns rows colors chars-per-pixel */
"64 64 243 2 ",
"   c #0C0100",
".  c #040306",
"X  c #140100",
"o  c #1A0000",
"O  c #3E2D1A",
"+  c #3D300E",
"@  c #3E322A",
"#  c #373537",
"$  c #2E3838",
"%  c #442C02",
"&  c #4C2D02",
"*  c #482B09",
"=  c #532D01",
"-  c #5B2E01",
";  c #572905",
":  c #4E3302",
">  c #45340C",
",  c #4C330C",
"<  c #4F3807",
"1  c #543301",
"2  c #5B3201",
"3  c #53340C",
"4  c #5B340A",
"5  c #583A08",
"6  c #442D12",
"7  c #463414",
"8  c #4B3412",
"9  c #45341C",
"0  c #4B341B",
"q  c #4E3916",
"w  c #533413",
"e  c #543916",
"r  c #622C00",
"t  c #602F0F",
"y  c #623301",
"u  c #633805",
"i  c #443324",
"p  c #553C26",
"a  c #4D3630",
"s  c #5F4106",
"d  c #7A541F",
"f  c #6C4509",
"g  c #47443E",
"h  c #524229",
"j  c #725730",
"k  c #353244",
"l  c #454443",
"z  c #7F5C5A",
"x  c #756777",
"c  c #8D5517",
"v  c #97641D",
"b  c #8E6629",
"n  c #956524",
"m  c #976535",
"M  c #8C643B",
"N  c #A76727",
"B  c #AD722D",
"V  c #BD7A2C",
"C  c #B8742D",
"Z  c #A36D34",
"A  c #AF6A33",
"S  c #AC7738",
"D  c #B47534",
"F  c #BD7A33",
"G  c #B57B3C",
"H  c #BA7B3B",
"J  c #B77737",
"K  c #B26D26",
"L  c #97652A",
"P  c #C47C2D",
"I  c #C67B27",
"U  c #C27D33",
"Y  c #C47C3A",
"T  c #CA7B33",
"R  c #D17C29",
"E  c #F87C33",
"W  c #AC7C47",
"Q  c #B67C45",
"!  c #AD7850",
"~  c #8B5C6A",
"^  c #B97C6A",
"/  c #886051",
"(  c #C37C47",
")  c #EA7446",
"_  c #BC8338",
"`  c #AF823E",
"'  c #CA812B",
"]  c #C58133",
"[  c #CA8638",
"{  c #D58D35",
"}  c #DA8E35",
"|  c #D68E3C",
" . c #D98E3B",
".. c #DA8736",
"X. c #CA943E",
"o. c #D69134",
"O. c #DB9135",
"+. c #D4913B",
"@. c #D9903B",
"#. c #DD9A3B",
"$. c #DD9937",
"%. c #D8902E",
"&. c #E29D3C",
"*. c #E38C30",
"=. c #DEA23B",
"-. c #E2A03F",
";. c #B78244",
":. c #B78558",
">. c #B68E53",
",. c #BA976A",
"<. c #AB9C78",
"1. c #B98E6A",
"2. c #CC8C43",
"3. c #C58B49",
"4. c #D58D42",
"5. c #DA8D43",
"6. c #D88948",
"7. c #CC934C",
"8. c #C79444",
"9. c #D49243",
"0. c #DA9143",
"q. c #D2924B",
"w. c #DD9B42",
"e. c #C58754",
"r. c #CB9856",
"t. c #D79B57",
"y. c #D28D53",
"u. c #E68446",
"i. c #E29242",
"p. c #E69C4B",
"a. c #E49251",
"s. c #DDA648",
"d. c #D9AB54",
"f. c #C9A655",
"g. c #E6A749",
"h. c #E4AB59",
"j. c #E8A756",
"k. c #FAB65C",
"l. c #EEB154",
"z. c #C99964",
"x. c #D59B63",
"c. c #C69370",
"v. c #D9A566",
"b. c #D9AA78",
"n. c #CDAA70",
"m. c #E6AA64",
"M. c #EEB66C",
"N. c #EAB668",
"B. c #F4B967",
"V. c #EAB876",
"C. c #F8BC77",
"Z. c #E4AF7D",
"A. c #F8C67A",
"S. c #EBC178",
"D. c #5B689F",
"F. c #67648F",
"G. c #6B6BA1",
"H. c #A57E81",
"J. c #847398",
"K. c #7B8BBE",
"L. c #798DCA",
"P. c #7B8CC4",
"I. c #758BD7",
"U. c #758FD3",
"Y. c #5E8DFA",
"T. c #5F92F3",
"R. c #6C8DF0",
"E. c #AF9484",
"W. c #BCA98A",
"Q. c #A5A49D",
"!. c #AEA799",
"~. c #BCAC9C",
"^. c #B7AA97",
"/. c #B7B19E",
"(. c #8E91AF",
"). c #A5ACAB",
"_. c #AFAFAF",
"`. c #AAA9A6",
"'. c #B4ADA4",
"]. c #B9ACA3",
"[. c #B3AEAB",
"{. c #B6A8A8",
"}. c #ADB0AF",
"|. c #ADB1A3",
" X c #B3B0AC",
".X c #B8B3A9",
"XX c #ADAEB3",
"oX c #ADAEB9",
"OX c #A7ADB2",
"+X c #B2ADB2",
"@X c #ABB1B3",
"#X c #A9B4BA",
"$X c #B3B2B2",
"%X c #B8B6B6",
"&X c #9C9492",
"*X c #D4AE81",
"=X c #C6B39A",
"-X c #CBAE8E",
";X c #EABD85",
":X c #C2B3A5",
">X c #FDCC84",
",X c #F8CA8C",
"<X c #FED38C",
"1X c #EDCE9D",
"2X c #F8C996",
"3X c #FED593",
"4X c #FDD49B",
"5X c #FFDB9E",
"6X c #F7D799",
"7X c #EACB95",
"8X c #FDE59C",
"9X c #CFC6B8",
"0X c #FCDAA3",
"qX c #FCDBA6",
"wX c #FFDCB4",
"eX c #ECD0A5",
"rX c #FFE4A5",
"tX c #FFE4AC",
"yX c #FFE9AA",
"uX c #FDE7A7",
"iX c #FEE5B4",
"pX c #FDEAB4",
"aX c #FEE5BC",
"sX c #FEEBBC",
"dX c #F7E7B6",
"fX c #FEF2BD",
"gX c #FDF9B9",
"hX c #828DC9",
"jX c #B0B2C1",
"kX c #C8C7C5",
"lX c #D1C9C6",
"zX c #FEEAC2",
"xX c #FCE6C3",
"cX c #FFF6C9",
"vX c #FEF9DC",
"bX c #FFFBE3",
"nX c #FFFDEB",
"mX c #FDF4E8",
"MX c #FFFEF4",
"NX c #F6FFFF",
"BX c none",
"VX c #F9F5F5",
"CX c #EFFFFA",
/* pixels */
"BXBXBXBXBXBXBXBXBXBXBXBXBXBXBXBXBXBXBXBXBXBXBXBXBXBXBXBXBXBXBXBXBXBXBXBXBXBXBXBXBXBXBXBXBXBXBXBXBXBXBXBXBXBXBXBXBXBXBXBXBXBXBXBX",
"BXBXBXBXBXBXBXBXBXBXBXBXBXBXBXBXBXBXBXBXBXBXBXBXBXBXBXBXBXBXBXBXBXBXBXBXBXBXBXBXBXBXBXBXBXBXBXBXBXBXBXBXBXBXBXBXBXBXBXBXBXBXBXBX",
"BXBXBXBXBXBXBXBXBXBXBXBXBXBXBXBXBXBXBXBXBXBXBXBXBXBXBXBXBXBXBXBXBXBXBXBXBXBXBXBXBXBXBXBXBXBXBXBXBXBXBXBXBXBXBXBXBXBXBXBXBXBXBXBX",
"BXBXBXBXBXBXBXBXBXBXBXBXBXBXBXBXBXBXBXBXBXBXBXBXBXBXBXBXBXBXBXBXBXBXBXBXBXBXBXBXBXBXBXBXBXBXBXBXBXBXBXBXBXBXBXBXBXBXBXBXBXBXBXBX",
"BXBXBXBXBXBXBXBXBXBXBXBXBXBXBXBXBXBXBXBXBXBXBXBXBXBXBXBXBXBXBXBXBXBXBXBXBXBXBXBXBXBXBXBXBXBXBXBXBXBXBXBXBXBXBXBXBXBXBXBXBXBXBXBX",
"BXBXBXBXBXBXBXBXBXBXMXMXMXMXMXMXBXBXBXMXMXMXnXMXMXMXBXBXBXBXMXNXBXBXBXBXBXBXBXBXBXBXBXBXBXBXBXBXBXBXBXBXBXBXBXBXBXBXBXBXBXBXBXBX",
"BXBXBXBXBXBXBXBXBXBX0 w * , 0 MXBXNXNXMX9 3 3 & 9 MXBXBXBXBXVXMXMXBXBXBXBXBXBXBXBXBXBXBXBXBXBXBXBXBXBXBXBXBXBXBXBXBXBXBXBXBXBXBX",
"BXBXBXBXBXMXBXBXBXBXw 1 s = 2 nXMXBXBXnXq 2 & 2 , nXMXBXBXBXMXMXMXBXBXBXBXBXBXBXBXBXBXBXBXBXBXBXBXBXBXBXBXBXBXBXBXBXBXBXBXBXBXBX",
"BXBXBXBXBXMXMXBXBXBX, & & y 2 vXMXmXVXnX7 & u 2 1 vXMXBXVXBXMXMXBXBXBXBXBXBXBXBXBXBXBXBXBXBXBXBXBXBXBXBXBXBXBXBXBXBXBXBXBXBXBXBX",
"BXBXBXBXBXMXMXNXVXBX, 1 & <X>X= i 9 mXnX7 & 3X3X3X= w nXmXBXBXBXBXBXBXBXBXBXBXBXBXBXBXBXBXBXBXBXBXBXBXBXBXBXBXBXBXBXBXBXBXBXBXBX",
"BXBXBXBXBXMXMXNXBXVX8 1 u >X>Xr = e bXvX, = ,X<X>Xr = cXmXnXBXBXBXBXBXBXBXBXBXBXBXBXBXBXBXBXBXBXBXBXBXBXBXBXBXBXBXBXBXBXBXBXBXBX",
"BXBXBXBXBXBXBXNXMXBXw 4 - m.j.Q W :.w 8 & 2 v.m.m._ Q = w i BXBXBXMXBXBXBXBXBXBXBXBXBXBXBXBXBXBXBXBXBXBXBXBXBXBXBXBXBXBXBXBXBXBX",
"BXBXBXBXBXBXBXBXnXnX4 ; ; j.m.J Q Q 2 2 y - h.N.j.' _ = 1 i MXBXBXBXMXBXBXBXBXBXBXBXBXBXBXBXBXBXBXBXBXBXBXBXBXBXBXBXBXBXBXBXBXBX",
"BXBXBXBXBXBXBXVX> 6 Z G A C B A J Q S G Q D t.q.| T U - 2 7 MXBXBXBXBXBXBXBXBXBXBXBXBXBXBXBXBXBXBXBXBXBXBXBXBXBXBXBXBXBXBXBXBXBX",
"BXBXBXBXBXBXVXMX3 , S H H C B G D D D B B B 4.[ @.T U 2 2 7 MXBXBXBXBXBXBXBXBXBXBXBXBXBXBXBXBXBXBXBXBXBXBXBXBXBXBXBXBXBXBXBXBXBX",
"BXBXBXBXBXBXBXvX: % S B S K D G D D C B D S | |  .T U r y : nXMXBXBXBXBXBXBXBXBXBXBXBXBXBXBXBXBXBXBXBXBXBXBXBXBXBXBXBXBXBXBXBXBX",
"BXBXBXBXBXBXBXvX& 2 dXpXwXB D A F C m.m.wXfX8.} i.@.5.' P ] 2 % mXBXBXBXBXBXBXBXBXBXBXBXBXNXBXBXBXBXBXBXBXNXBXBXBXBXBXBXBXBXBXBX",
"BXBXBXBXBXMXMXbXy - sXfXwXJ K J K C m.t.sXaXX.*...| @.' P _ 2 e nXMXMXBXBXBXBXBXBXBXBXBXBXBXBXBXBXMXBXBXBXBXBXBXBXBXBXBXBXBXBXBX",
"BXBXBXBXBXi e 3 t.4.  . o 5.R  .i.[ c L o . 3.i.} 0.@.T T ] ` :., p O BXBXBXBXBXBXBXBXBXMXBXNXNXNXNXBXBXBXBXBXBXBXBXBXBXBXBXBXBX",
"BXBXBXBXBX& 2 u p.0.  . o i. .i...{ v m X . e.9.[ 0.0.T ' U [ 7.y 3 0 BXBXBXBXBXBXBXBXBXMXMXMXBXBXBXBXVXMXMXMXBXBXBXBXBXBXBXBXBX",
"BXBXBXBXBX1 2 2 5.6.  . o ..i. .#.+.v M   . c.q.X.9.0.[ P ] ] F - 2 , BXBXBXBXBXBXBXBXBXVXBXMXMXMXMXMXMXMXMXBXBXBXBXBXBXBXBXBXBX",
"BXBXBXBXBX3 2 2 C.C.  . o p.p.j.j.d.n M X . ;XC.C.C.C.7.3.4.' ] r - , BXBXBXBXBXBXBXBXBXBXBXMX3 1 2 q 7 BXBXBXBXBXBXBXBXBXBXBXBX",
"BXBXBXBXBX, 2 2 N.V.X   o h.j.p.j.d.n M o o ;XC.A.M.C.r.7.q.P P - 2 , BXBXBXBXBXBXBXBXBXBXBXbX: 1 2 : 7 MXBXBXBXBXBXBXBXBXBXBXBX",
"BXBXBXBXBX< 1 4 tXtX:.:.W h.j.p.j.h.m.m.n.*XB.m.V.V.S.5XuXrXX.4.r 2 8 BXBXBXBXBXBXBXBXBX7 q + sXfXfXsXcXq 9 MXBXBXBXBXBXBXBXBXBX",
"BXBXBXBXBX7 3 ; tXrX_ [ ] h.j.g.g.j.j.g.s.d.l.k.M.C.;XdXpXrX4.2.r : 7 BXBXBXBXBXBXBXBXBX3 2 : gXgXgXgXgX1 8 nXBXBXBXBXBXBXBXBXBX",
"BXBXBXBXBX6 4 = rX8XW e.Q v.t.g.p.j.g.p.s.d.k.k.V.C.7XtXtXrXq.9.w # @ MXMXMXMXMXnXMXMXMX, 1 : pXgXgXgXcX< : bXMXMXBXBXBXBXBXBXBX",
"BXBXBXBXBX, = 2 h.j.p l l a g v.p.j.B.V.1X1XdXsXpXdXdXiXiXuX0.o.P.Y.I.= 2 1 = 2 2 1 1 < sXsXpXW W aXxXzXdXyX2 : > BXBXBXMXBXBXBX",
"BXBXBXBXBX, : u h.m.h l l g l n.m.t.V.;X1XeXdXzXsXaXxXaXwXrX| { J.R.hX- = - 2 2 2 2 2 s iXzXwXW Q uXrX8XpXiX1 : > MXBXBXBXBXBXBX",
"BXBXBXBXBXe 4 ; c c i # $ # $ j f c ,X2XiXdXzXzXpXiXxX0X3X6X{ %.x F.x d.d.d.d.d.d.d.d.d.2 & t e.e.3.>.f.pXzX2 : > MXBXBXBXBXBXBX",
"BXBXBXBXBXw 4 2 d d i # # k k j M d 7X6XqXaXsXzXsXpXpX8X6X5X2.| ~ J.z s.s.s.s.g.g.g.g.s.2 ; r Q Y 2.X.X.yXiX= : , nXBXMXBXBXBXBX",
"BXBXBXBXBXMXMXvX* = y.y.) u.u.1.,.,.6X5X0X0X0X6X3Xy.q.7.8.c.(.K.1.! ;.s.s.w.=.s.s.#.#.#.d.d.s.5.5.( S ;.r.7.tXsXaX7 i MXMXBXBXBX",
"BXBXBXBXBXBXBXmXt ; u.E E E E z.,.,.4X0X0X6X4X5X3X9.| +.+.c.R.T.^ _ _ $.$.$.$.=.=.=.#.$.=.s.w.| 5.( Q ;.7.8.yXaXaX7 i MXBXBXBXBX",
"BXBXBXBXBXMXMXmX6 6 6.u.) ) ) :.,.c.0XqX6X5X<X<X5Xz.c.r.3.E.P.U.:.' ' #.#.&.$.&.&.&.$.O.=.=.&. .5.( ( ( 9.X.uXsXaX: 7 MXBXMXBXBX",
"BXBXBXBXBXBXBXBXNXNX4 - ; <.<.dXpXiXiXaXiXpXt.8.c.U.R.D.F.~ P R 6.9.+.5.4.4.4.4.4.| 4.4.o.o.| ..5.0.0.0. .2.yXaXaX1 , nXBXMXBXBX",
"BXBXBXBXBXBXBXVXNXNX= y 4 <.<.aXsXpXaXaXdXiXr.2.,.L.R.G.x ~ _ ' [ |  .| 5.|  .{ @.@. .@.o.+.5.i.5.o.o.%.} q.yXzXaX1 , nXBXMXBXBX",
"BXBXBXBXBXBXNXMXBXBX, = t eX6X&X(.(.L.I.I.I.L.P.P.D.F.H.^ (  .} @. . . . .| |  .| @. . .| | |  . .O.o.@. .7.yXzXzX1 , nXBXMXBXBX",
"BXBXBXBXBXBXBXBXBXBX7 = y 2X2X(.hXI.R.T.Y.Y.Y.T.I.F.z ! e.[ } }  .|  . . . .|  . . . .|  . .} }  .O.}  . .8.yXsXaX= , nXBXMXBXBX",
"BXBXBXBXBXBXBXMXBXVX, 1 - 2X2X&X).(.(.L.L.L.L.P.(.x M Q ] I } o.@.5. . . . . . . .|  . .o.O.{  .} | @.} @.9.yXzXaX: > MXBXMXBXBX",
"BXBXBXBXBXBXBXMXBXMX7 3 - b.b.} *.*.5.9.9.0.5. .5.y.y...{ %.o.o.+.4.|  . . . . .| 5.5.5.@.o.| 5.5.5.|  .o.X.uXaXaX, 9 MXBXBXBXBX",
"BXBXBXBXBXBXBXMXBXMX6 7 = Z.b.{ .. .| | +.|  .*. .4.4. .O.o.X.X.9.|  . . . .| | 4.5.5.4.@.{ ..6.4.5.4.| o.X.uXsXaX, 9 MXBXMXBXBX",
"BXBXBXBXBXBXBXBXMXBXMXnXvX1 - Z.b.Z.4X,XtXtX_ H [ U T I I V N N V P I C V V F N K N N N U C Y T Y 6.6.4.k.N.2 < , bXMXMXBXBXBXBX",
"BXBXBXBXBXBXBXNXBXBXNXBXbX3 4 *X*Xn.eXeXtXrX;._ ;.] ] U V J N Z D U U H H ` H N N N N N J ( Y J Y 6.q.4.B.M.2 1 , MXBXMXBXBXBXBX",
"BXBXBXBXBXBXNXBXBXNXNXBXnX1 4 *X*X*X1X2XtXrX>._ ] Y U U F G Z Z S H J Q G W Q Z Z Z Z Z D J D Y Y 6.4.4.B.N.- : > MXBXBXMXBXBXBX",
"BXBXBXBXBXMXBXBXMXMXNXNXnX1 2 x.x.b.r r Q Y 0.} ..V F F F G 2 2 2 2 2 - 2 2 2 2 2 2 2 2 Z N N 4.5. .| { B.M.2 : > BXBXBXBXBXBXBX",
"BXBXBXBXBXMXBXBXMXMXBXBXnX1 2 r.v.r.2 2 ! W 9.+.| P U U G W 3 , 9 8 7 8 3 = 1 4 2 2 2 4 m Z N {  .{ O.o.B.N.2 : > BXBXBXBXBXBXBX",
"BXBXBXBXBXBXBXBXMXMXBXBXnX3 2 x.x.z.: : 1 = J V J 4. .r 2 : |.!.|.'./.~.^.e 4 M m m ; - 2 2 2 O. .i...i.M.m.2 : 0 VXBXBXBXBXBXBX",
"BXBXBXBXBXBXNXMXMXBXBXBXMX3 2 t.x.z.: 1 2 = V P U 6. .2 2 , ).Q.#X$X[.|.!.w 1 b n n 1 = 2 2 2 }  .| ....V.N.1 * 6 MXVXBXBXBXBXBX",
"BXBXBXBXBXBXBXBXMXBXNXNXMX3 2 x.x.x.: 2 = 2 V I P  . .y 2 8 `.Q.).[.[.).`.e 5 b b v : 1 2 = 2 }  .| ..[ 2 2 W.^.!.MXBXBXBXBXBXBX",
"BXBXBXBXBXBXBXMXNXNXBXNXMX3 2 x.x.x.2 2 = 3 V I V +.| y - , Q.Q.).[.`.`.'.e 5 b n n : : - - 2 } | 9.0.t.1 1 ^.].:XBXBXBXBXBXBXBX",
"BXBXBXBXBXBXMXBXBXNXNXNXnX3 2 r.t.x.1 1 w 6 G H G +. .y - , Q.Q._.[.~.^.W.u u v v n = 2 3 8 3 q.q.[ 0.2.= 4 ].$X$XMXMXNXBXBXBXBX",
"BXBXBXBXBXMXMXMXNXNXBXMXbX3 1 3X,X2X1 , =X{., 1 2 2.{ - 2 , kX9XkXlX9X: 5 d.S.g.B.h.u = ~.[.~.y r 7.4.4.- w {.XXoXBXMXMXMXBXBXBX",
"BXBXBXBXBXBXBXBXNXBXMXMXvX1 : 7X>X3X1 , ~.OX> : 1 r.9.- = > kX9XkXlX9X< 1 M.B.B.B.C.- 3 '.$X].t - 7.[ 2.- t {.OX$XBXBXBXBXBXBXBX",
"BXBXBXBXBXBXBXNXBXMXi 9 * dXpXtXrXqX1 7 ].OX, < 2 3X>Xu 2 > _.`.OX[.].~.-X- r r r - =X{.}.#X X4 - m.l.N.1 3 ]._.+XBXBXBXBXBXBXBX",
"BXBXBXBXBXBXBXBXMXMX0 * 5 iXfXpXiXwX, 8 {.#X, < 2 A.A.2 = 8 $X XoX%X.X{.:X* - = - * :X{.}.@X|.2 1 N.k.S.2 e /._.$XBXBXBXBXBXBXBX",
"BXBXBXBXBXBXBXBXBXMXi w 1 iXpXpXpXaX0 0 =X'.1 2 2 <X>X1 3 0  X[.@X$X+XXX.X7 , > , + .X|././.^.1 1 N.N.S.5 w ]._.[.BXBXBXBXBXBXBX",
"BXBXBXBXBXMXMXBXBXBX+X[.=Xq < 1 e 6 {.].> % qXsXcXpXpX5 % 6 ~.'.XXoXoX_.@X[.}._._.XX_._.* 2 s sXdXfXgXeX& & ].`.$XBXBXBXBXBXBXBX",
"BXBXBXBXBXBXBXBXBXBXXX[.~.> * 1 7 9 {.!.9 1 rXwXiXrXtX: 8 9 ]..X+X@X@X_.[.[.@X[.[.@X[.[.8 : : wXaXiXiXiX< , '._.$XBXBXBXBXBXBXBX",
"BXBXBXBXBXBXBXBXBXBXBXMXMX^.^.^.].Q.OX[.~.=X& & & % + W.=X/._.}.+X@XXX_.@X_.}.XX@X[.XX}. X!.=X% 1 & % , :X'._._.@XBXBXBXBXBXBXBX",
"BXBXBXBXBXVXBXBXBXBXMXBXVX{.{.+X).}.$X).$X:Xp 6 : * > !..X%XOX@X@X[.[.}.}.XX[.@XXX}.@X[.#XoX!.% 1 : % h %XjXXX_. XBXBXBXBXBXBXBX",
"BXBXBXBXBXBXBXBXMXNXMXBXMX+X+X+X%X@X).+X_.[.i 9 q q 9 .X.X).@X@X X[. X_.[.[.@X[.[.@X[.}.oXoX{.9 , q 7 @ +XOXXX_.$XBXBXBXBXBXBXBX",
"BXBXBXBXBXBXBXBXBXMXBXBXNXBXBXBXBXBX`.XXOXOX}. X/.~.].[.}.@X#XOX}.[.[._.@X[.XX}.@X_.[.XX'..X'._.[.+X[.[.'.'.BXBXBXBXBXBXBXBXBXBX",
"BXBXBXBXBXBXBXBXBXBXBXBXBXBXBXBXVXVX.X`.OX#X)._.$X[.[.XX@X}.XXXX$XXX[._.[.@X@X[.[._.@X[.$X X`.@X).#XXX[.[.[.BXBXBXBXBXBXBXBXBXBX",
"BXBXBXBXBXBXBXBXBXBXBXBXBXBXBXVXBXBXBXBXNXNX%X$X`.+X+X@XXX}. X@XXXXXXX$X@X[.[.XX_._.XX[.[.+X%XBXBXBXNXBXBXBXBXBXBXBXBXBXBXBXBXBX",
"BXBXBXBXBXBXBXBXBXBXBXBXBXBXMXBXVXBXBXBXBXMX.X{.+XoX@X+X_. X[.[.XX+XXXXX[.@X[.}.XX[._.XXOXOX#XMXMXMXBXMXBXNXBXBXBXBXBXBXBXBXBXBX"
};
