/* XPM */
static char *result[] = {
/* columns rows colors chars-per-pixel */
"64 64 249 2 ",
"   c #030302",
".  c #0A0000",
"X  c #090902",
"o  c #140000",
"O  c #1A0600",
"+  c #3D2F17",
"@  c #3B310E",
"#  c #2D3D38",
"$  c #34362E",
"%  c #651F00",
"&  c #442D02",
"*  c #4C2D02",
"=  c #482B07",
"-  c #552D01",
";  c #5A2E01",
":  c #562B07",
">  c #4E3404",
",  c #4C340C",
"<  c #4E390D",
"1  c #483605",
"2  c #543302",
"3  c #5B3201",
"4  c #543901",
"5  c #53330B",
"6  c #56370C",
"7  c #472D13",
"8  c #522F17",
"9  c #453414",
"0  c #4B3313",
"q  c #44341B",
"w  c #4C331C",
"e  c #4B3913",
"r  c #543815",
"t  c #622E00",
"y  c #632300",
"u  c #613100",
"i  c #663800",
"p  c #6A3A08",
"a  c #473825",
"s  c #553D29",
"d  c #473D36",
"f  c #502C28",
"g  c #7B5A1D",
"h  c #4D412F",
"j  c #4C4532",
"k  c #7E5329",
"l  c #574310",
"z  c #352D43",
"x  c #7A646E",
"c  c #63564F",
"v  c #86521A",
"b  c #8B551C",
"n  c #A75B1B",
"m  c #A8661D",
"M  c #875522",
"N  c #955D28",
"B  c #8C512B",
"V  c #8E6226",
"C  c #966529",
"Z  c #966331",
"A  c #A86925",
"S  c #BB752B",
"D  c #B7762A",
"F  c #AA7639",
"G  c #B27434",
"H  c #B47B35",
"J  c #BC7B33",
"K  c #B37D3C",
"L  c #BB7B3B",
"P  c #B87638",
"I  c #AC722A",
"U  c #91611F",
"Y  c #C47C2E",
"T  c #CC7C29",
"R  c #C27C34",
"E  c #C37D3A",
"W  c #CA7B3C",
"Q  c #D27839",
"!  c #FF7C31",
"~  c #AB7A45",
"^  c #B57C45",
"/  c #B6754C",
"(  c #84636C",
")  c #A8796A",
"_  c #895E5D",
"`  c #C47B45",
"'  c #D47A4D",
"]  c #F3784F",
"[  c #BB8339",
"{  c #D5932E",
"}  c #DB982E",
"|  c #C3833C",
" . c #CA823A",
".. c #C88537",
"X. c #DB8E34",
"o. c #D58D3D",
"O. c #DA8D3B",
"+. c #D18934",
"@. c #D69234",
"#. c #DB9135",
"$. c #D4913B",
"%. c #DA973A",
"&. c #CE9132",
"*. c #E28B3C",
"=. c #E18B36",
"-. c #E3973B",
";. c #FE8335",
":. c #DBA335",
">. c #E2A239",
",. c #B68347",
"<. c #B88351",
"1. c #B58C4E",
"2. c #BD8F6D",
"3. c #B89767",
"4. c #B89775",
"5. c #CD8D4A",
"6. c #C58747",
"7. c #D48E43",
"8. c #DA8D42",
"9. c #D38E4A",
"0. c #DA8C4B",
"q. c #CD9345",
"w. c #CB944A",
"e. c #C79649",
"r. c #D39243",
"t. c #DA9242",
"y. c #D79647",
"u. c #C88B57",
"i. c #C79455",
"p. c #D69B57",
"a. c #DF8550",
"s. c #E28A46",
"d. c #F18950",
"f. c #DCA54A",
"g. c #DCAB53",
"h. c #D7A755",
"j. c #CBA94F",
"k. c #E4A947",
"l. c #E3A554",
"z. c #E5A55C",
"x. c #E7A757",
"c. c #F5B55B",
"v. c #E9B156",
"b. c #C68C64",
"n. c #CB9C6C",
"m. c #D49A66",
"M. c #C49876",
"N. c #D59471",
"B. c #D8A86A",
"V. c #DBB471",
"C. c #E4A968",
"Z. c #EDB767",
"A. c #ECB66A",
"S. c #F4B463",
"D. c #F4B968",
"F. c #E8B975",
"G. c #F7BD75",
"H. c #E2A877",
"J. c #EAC178",
"K. c #FAC979",
"L. c #766687",
"P. c #676796",
"I. c #6368A8",
"U. c #967D9B",
"Y. c #857FC9",
"T. c #778FCE",
"R. c #5B8CFD",
"E. c #648EF7",
"W. c #6D8BEC",
"Q. c #AE918F",
"!. c #AAA69A",
"~. c #B3AA9D",
"^. c #BCAD9D",
"/. c #B9A996",
"(. c #B9B09C",
"). c #B5A38B",
"_. c #9089AF",
"`. c #ACACA5",
"'. c #AFAFAD",
"]. c #A8A8A6",
"[. c #B4ADA3",
"{. c #BBACA3",
"}. c #B2AEAC",
"|. c #BBADAB",
" X c #BCA7A5",
".X c #AEB0AC",
"XX c #ACB0A5",
"oX c #BBB2A3",
"OX c #B3B1AD",
"+X c #B7B3A7",
"@X c #AEAFB3",
"#X c #ACAEB8",
"$X c #B0AEB3",
"%X c #B3A9B6",
"&X c #ABB1B3",
"*X c #A9B1BA",
"=X c #B3B3B3",
"-X c #B8B7B8",
";X c #C2AA94",
":X c #D1A889",
">X c #EBBD86",
",X c #F3BB85",
"<X c #E2A982",
"1X c #C2B4A6",
"2X c #C3AEA2",
"3X c #FECB85",
"4X c #FBC989",
"5X c #FFD38E",
"6X c #FCD688",
"7X c #F9CA97",
"8X c #FDD599",
"9X c #EAC88F",
"0X c #FFE69D",
"qX c #C9C4B8",
"wX c #D8CDB2",
"eX c #EBC8A4",
"rX c #F6C9A2",
"tX c #EAD2A4",
"yX c #FFD4A6",
"uX c #FCDBA7",
"iX c #E6D3B2",
"pX c #FFE2AC",
"aX c #FDEAAC",
"sX c #FFE6A6",
"dX c #FFE4B2",
"fX c #FEEAB3",
"gX c #FFE5BB",
"hX c #FEEABB",
"jX c #F7ECB2",
"kX c #FFF4BA",
"lX c #FFFABB",
"zX c #FFFAB6",
"xX c #848BC5",
"cX c #848CD3",
"vX c #AEBAC8",
"bX c #D4CBC3",
"nX c #C5C8C3",
"mX c #FDEBC2",
"MX c #F8E8C6",
"NX c #FEF7C6",
"BX c #FFFADB",
"VX c #F4E6DB",
"CX c #FFFCE4",
"ZX c #FFFDEC",
"AX c #FDF6E8",
"SX c #FFFEF3",
"DX c none",
"FX c #F7F8F7",
"GX c #F3E6E1",
/* pixels */
"DXDXDXDXDXDXDXDXDXDXDXDXDXDXDXDXDXDXDXDXDXDXDXDXDXDXDXDXDXDXDXDXDXDXDXDXDXDXDXDXDXDXDXDXDXDXDXDXDXDXDXDXDXDXDXDXDXDXDXDXDXDXDXDX",
"DXDXDXDXDXDXDXDXDXDXDXDXDXDXDXDXDXDXDXDXDXDXDXDXDXDXDXDXDXDXDXDXDXDXDXDXDXDXDXDXDXDXDXDXDXDXDXDXDXDXDXDXDXDXDXDXDXDXDXDXDXDXDXDX",
"DXDXDXDXDXDXDXDXDXDXDXDXDXDXDXDXDXDXDXDXDXDXDXDXDXDXDXDXDXDXDXDXDXDXDXDXDXDXDXDXDXDXDXDXDXDXDXDXDXDXDXDXDXDXDXDXDXDXDXDXDXDXDXDX",
"DXDXDXDXDXDXDXDXDXDXDXDXDXDXDXDXDXDXDXDXDXDXDXDXDXDXDXDXDXDXDXDXDXDXDXDXDXDXDXDXDXDXDXDXDXDXDXDXDXDXDXDXDXDXDXDXDXDXDXDXDXDXDXDX",
"DXDXDXDXDXDXDXDXDXDXDXDXDXDXDXDXDXDXDXDXDXDXDXDXDXDXDXDXDXDXDXSXDXDXDXDXDXDXDXDXSXSXSXSXSXDXDXDXDXSXSXZXSXSXDXDXDXDXDXDXDXDXDXDX",
"DXDXDXDXDXDXDXDXDXDXDXDXDXDXDXDXDXDXDXDXDXDXDXDXDXDXDXDXDXSXDXSXDXDXFXDXDXDXDXSX& , 0 0 q DXDXDXDXq 7 , , , SXDXDXDXDXDXDXDXDXDX",
"DXDXDXDXDXDXDXDXDXDXDXDXDXDXDXDXDXDXDXDXDXDXDXDXDXDXDXDXDXDXSXSXDXFXDXDXDXSXSXBX> 2 2 2 0 DXDXFXDX5 ; 2 > 2 ZXDXDXDXDXDXDXDXDXDX",
"DXDXDXDXDXDXDXDXDXDXDXDXDXDXDXDXDXDXDXDXDXDXDXDXDXDXDXDXDXDXDXDXDXDXDXDXFXq w = 9X7X- 2 , FXSXw w 8X4X4X3 2 ZXDXDXDXDXDXDXDXDXDX",
"DXDXDXDXDXDXDXDXDXDXDXDXDXDXDXDXDXDXDXDXDXDXDXDXDXDXDXDXDXDXDXDXDXDXDXDXDXr 5 p 5X7X3 2 0 FXSXr 5 4X4X5X3 3 SXDXDXDXDXDXDXDXDXDX",
"DXDXDXDXDXDXDXDXDXDXDXDXDXDXDXDXDXDXDXDXDXDXDXDXDXDXDXDXDXDXDXDXFXDXSXZXCX- ; y 5X7X; 2 > ZXCX- ; 3X3X5X; 2 ZXDXDXDXDXDXDXDXDXDX",
"DXDXDXDXDXDXDXDXDXDXDXDXDXDXDXDXDXDXDXDXDXDXDXDXDXDXDXDXDXFXDXDXDXSXSX9 , 6.| ` x.m.t 3 3 8 * <.^ C.z.B.3 2 AXDXFXDXDXDXDXDXDXDX",
"DXDXDXDXDXDXDXDXDXDXDXDXDXDXDXDXDXDXDXDXDXDXDXDXDXDXDXSXDXDXDXDXDXSXZX, 5 [ E  .x.C.t 3 3 5 3 ^ ^ C.z.B.- 3 CXSXSXDXDXDXDXDXDXDX",
"DXDXDXDXDXDXDXDXDXDXDXDXDXDXDXDXDXDXDXDXDXDXDXDXDXDXDXDXDXDXDXDXDXSXCX, 2 ..E W %.9.G D H F G G F Y S G F F 1 9 q DXDXDXDXDXDXDX",
"DXDXDXDXDXDXDXDXDXDXDXDXDXDXDXDXDXDXDXDXDXDXDXDXDXDXDXDXDXDXDXDXDXSXZX2 2 ..W R o.9.D I I G I J ^ S D G K G 2 r 0 DXDXDXDXDXDXDX",
"DXDXDXDXDXDXDXDXDXDXDXDXDXDXDXDXDXDXDXDXDXDXDXDXDXDXDXDXDXDXDXDXSXSXCX3 u ..E R +.9.G H G G D J G D S I ^ G - 3 * DXDXDXDXDXDXDX",
"DXDXDXDXDXDXDXDXDXDXSXDXSXDXSXDXDXDXSXDXDXDXDXDXDXDXDXDXFXFXZXZX, - u | | O.@.@.7.i.aXdXfXC.z.I I D I ~ gXgX0 5 - FXDXFXFXSXDXDX",
"DXDXDXDXDXDXDXDXDXDXSXDXDXDXDXDXDXDXDXDXDXDXDXDXDXDXDXDXDXDXCXZX5 ; i T E X.{ X.X.w.aXlXfXh.l.D P S S F pXfX2 - : AXFXDXDXSXDXDX",
"DXDXDXDXDXDXDXDXDXDXDXDXDXDXDXDXDXDXDXDXDXDXDXDXDXDXDXDXSXFX@ + <.^ P +.Y O.8.8.*.i.o . O N n O.O.X.O.i.o . n.q.e.7 + AXDXDXDXDX",
"DXDXDXDXDXDXDXDXFXDXDXDXDXDXDXSXSXDXDXDXDXDXDXSXDXDXDXDXSXSX, , ,. .E T T $.9.8.X.i..     U n s.r.*.s.i..   i.+.5.5 < ZXSXDXDXDX",
"DXDXDXDXDXDXDXDXDXDXDXDXFXFXZXZXCXDXDXDXDXDXSXSXDXDXDXFXDXAX1 & | E Y +.T $.9.9.{ 3..   . C n s.r.8.O.i.    w.o.9.* > AXSXDXDXDX",
"DXDXDXDXDXDXDXDXFXFXDXSXq 0 , 2 2 AXSXDXFXSXDXDXDXDXDXDXSXZX2 2 ..R ..O.o.G.>X,XD.9X. . . N A d.g.z.x.B.. . >XZ.4X2 > ZXSXDXDXDX",
"DXDXDXDXDXDXDXDXDXDXSXCXe 5 2 2 2 CXAXSXSXDXDXDXDXDXDXDXDXZX2 3 D R E $.w.G.>X,XG.,XO . o N N x.l.l.l.H.o . >XG.A.3 2 CXSXDXDXDX",
"DXDXDXDXDXDXDXDXDXAXj & NXkXzXlXlXe 7 h SXDXDXDXDXDXDXDXDXZX- 5 ..5.p.0XaXJ.J.J.D.A.B.B.p.l.l.l.z.g.l.h.,.,.fXdXhX2 2 ZXSXDXDXDX",
"DXDXDXDXDXDXDXDXSXZX0 1 kXzXzXNXNX< 5 9 SXFXDXDXDXDXSXDXDXZX- - r.w.1.pXfXG.J.F.A.S.k.k.k.x.k.k.l.k.k.z...S pXkXpX5 5 AXSXDXDXDX",
"DXDXDXDXDXDXDXSXZXBXe & kXlXlXlXNX> & e CXZXSXDXSXSXZXSXZXZXa a 5.u.i.aXaXF.9XF.F.A.h.g.x.x.l.k.x.l.h.V.6.^ yXpXsX2 , ZXSXDXDXDX",
"DXDXDXDXFXDXDXSX2 2 fXaXgXmXdX~ ^ kXfXpX> 4 - ; ; - 5 - 2 $ R.R.b.s.0.aXjXhXjXaXfXpXtXwX7Xc.Z.z.z.h j j d j B.l.l.3 2 ZXSXDXDXDX",
"DXDXDXDXDXDXDXSX3 > jXjXfXfXyX/ ~ mXdXhX> i 4 4 3 2 3 t 3 s W.W.i.X.t.pXgXhXfXfXMXgXrXeX7Xc.v.g.z.j j # d d N.m.C.2 > ZXSXDXDXDX",
"DXDXDXDXDXDXDXZXu > hXgX1.5.m./ ^ - 4 2 V.g.g.v.g.h.h.j.h.n.P.P.b.7.u.uXyXhXfXfXgXgXgXMXmXrX8Xg b @ # # z # B B v 2 , CXSXDXDXDX",
"DXDXDXDXDXSXSXCXu 2 gXgXe.o.9.L / - ; i v.g.k.k.k.f.g.g.:.B.L.x e.@.&.8XyXhXdXhXMXjXfXgXhXwXtXg v a # z z $ k B v , 0 ZXSXDXDXDX",
"DXDXDXDXDXSXCXBX3 2 pXpXw.w.9.L ^ u u 3 g.k.k.>.k.f.f.g.k.h._ x 3.3.3.5X7XpXuXdXhXfXdXpXpXtXtXg k w f f f : k B g e q SXDXDXDXDX",
"DXDXDXSXZX+ < , mXsXq.@.^ / u.5.*.k.f.f.} } :.>.>.y.f.t.:.%.W ` T.W.Y.O.*.*.8.0.5X8XyX7X8X6X5X4.Q.] ] ! ! ;.i * q SXFXDXDXDXDXDX",
"DXDXDXDXZX9 4 > mXuXr.{ W ^ ` o.*.>.>.-.:.} :.>.>.y.%.-.y.%.Q  ._.xX_.i.w.b.).M.K.6XyXuXuXsXuX3.4.' ] ] d.d.3 @ 9 DXDXDXDXDXDXDX",
"DXDXDXFXCX9 3 2 hXsX9.O.t.7.q.%.O.O.%.O.$.O.$.t.t.8.8.8.} } &.&.6.) ) x x _._.U.w.e.fXpXaXaXgXhXMXN.N.b.y % BXCXSXDXDXDXFXDXDXDX",
"DXDXDXDXZX0 3 2 hX0Xe.r.=.=.O.O.$.$.$.o.t.r.8.O.O.#.#.%.s.y.&.{ Q  .<.L.x W.R.T.0.r.dXgXpXaXjXjXNX4.3.2.& > CXDXFXDXDXFXDXDXSXDX",
"DXDXDXDXZX0 3 2 hX0Xe.r.*.-.s.0.$.#.X.o.O.8.o.o.O.{ #.$.a.a.{ @.' ..[ ( ( T.W.T.M.b.GXGXVXVXGXNXMX4.3.4.2 > FXFXDXDXDXDXFXDXSXDX",
"DXDXDXDXZX0 2 2 fXsXe.O.8.O.O.0.8.O.O.O.O.O.o.O.o.O.O.r.O.O.$.O.O.O.o.Y Y _ P.I.W.E.E.E.E.R.E.T._.wXtX7Xt 3 FXDXDXDXDXDXDXDXDXDX",
"DXDXDXDXZX, 2 2 hXpXe.o.O.X.@.O.@.X.O.O.O.O.O.O.O.O.O.O.O.O.O.O.O.o.+...R _ x L.xXT.xXxXxXT._.Q.Q.eXrXrX: > SXDXDXDXDXDXDXDXDXDX",
"DXDXDXSXCX9 4 2 gXpXe.@.O.#.{ $.@.O.o.O.O.O.O.O.O.O.O.O.O.O.O.O.7.t.O.o.o.9.u.b.4.4.2.2.2.2.3.2.2.:XV.H.3 > ZXDXDXDXDXDXDXDXDXDX",
"DXDXDXDXZXq 5 , hXuXq.$.o.$.+.7.$.O.7.8.O.t.t.O.o.O.O.O.O.O.o.O.o.7.O.o.O.X.X.o.$.q.q.$.o.+.O.o.w.C.C.V.2 1 CXSXDXDXDXDXDXDXDXDX",
"DXDXDXDXDXSXCXBX2 t D.S.7.7.7.` E S J S m A A m A Y Y Y S Y J E A m A E S Y ..E E 6.uXsXpX7X7XH.H.u 3 < CXDXDXDXDXDXDXDXDXDXDXDX",
"DXDXDXDXDXDXSXCX2 u Z.S.0.7.9.` ` L R D A I I A I J R S J J H H A A A J S E E R E 6.uXpXdXrXyX<XH.3 2 0 SXFXDXDXDXDXDXDXDXDXDXDX",
"DXDXDXDXFXDXDXZX2 u Z.S.9.9.5.` ` E E ,.C Z Z F F K K ^ K ^ ~ ^ F A A [ S [ E Y ..| 8XpXhXtXyX:XB.3 4 9 SXFXDXSXSXDXDXDXDXDXDXDX",
"DXDXDXDXFXDXDXZX2 u Z.D.7.7.r.5.0.A A C u u 3 - ; t u u 3 u 3 ; : ; i P J P Y Y O.q.[ ,.~ 2 - N.p.> 2 , CXDXDXZXSXDXDXDXDXDXDXDX",
"DXDXDXDXFXDXDXSX2 3 Z.c.$.+.@.o.O.A A Z 3 3 2 5 2 3 2 3 3 2 6 3 ; ; t L P L P Y O.+.[ [ 1.3 u m.p.; 6 r AXFXDXSXFXDXDXDXDXDXDXDX",
"DXDXDXDXDXDXDXSX; ; Z.c.@.o.8.7.o.u 3 3 3 3 Z N Z - 3 /././.[.}.!./.).; 3 w.7.9.R H 3 3 2 2 3 n.p.u ; > AXDXDXDXDXDXDXDXDXDXDXDX",
"DXDXDXDXDXDXDXSX; l g.D.$.O.s.8.$.u 3 3 ; ; Z N V 3 6 ^.~.}.&X.X`.].!.; 3 9.o.0.H [ 3 5 2 2 ; n.p.3 ; > AXDXDXDXSXDXDXDXDXDXDXDX",
"DXDXDXDXDXDXDXDXe e V.F.$.o.*.8.X.; ; 5 5 3 Z V V 4 > XX[.`.*X&X].].!.- 3 7.X.8.J H 3 3 2 3 3 m.p.t ; , SXDXDXDXDXDXDXDXDXDXDXDX",
"DXDXDXDXDXDXDXDX[.(.& 3 q.o.*.O.O.t 2 2 3 2 V V V 6 r !.!.~.*X&X!.].!.* 3 O.X.8.R K 3 8 5 2 t m.p.t 3 9 SXDXDXDXDXDXDXDXDXDXDXDX",
"DXDXDXDXDXDXDXDX=X!.l 2 q.o.*.8.O.; 2 2 2 3 V U V 6 p !.).!.@X.X].!.!.2 3 7.X.o.K [ ; 8 5 3 t m.p.3 3 9 SXDXDXDXDXDXDXDXDXDXDXDX",
"DXDXDXDXDXDXDXDXOX[., 2 e.r.9.t t ;X X/.> 2 A.A.S.Z.A.0 = s bXbXqXnXqX2 2 5.7.7.t 2 :X X;X2 t 4X3Xi > 9 SXSXDXDXDXDXDXDXDXDXDXDX",
"DXDXDXDXDXDXDXDXOX+X, - e.y.7.t ; 2X|.{.r 2 F.A.c.c.S.- p 8 qXqXqXnXqX5 > 5.7.5.; 2 ;X|.|.4 ; 7X3X3 > @ AXSXFXDXDXDXDXDXDXDXDXDX",
"DXDXDXDXDXDXDXDXOXoX5 - e.y.p.; 2 [.=X~.a , F.F.A.Z.A., 6 s bXbXqXnX1X2 2 1.5.i.3 e ^.%X|.1 5 7X9X6 > 1 CXAXDXFXDXDXDXDXDXDXDXDX",
"DXDXDXDXDXDXDXDXOX[.0 - A.J.D.3 2 oXXXXXoX2X8 - ; ; 3 (.^.oX#X-X&X'.oX3 3 4X3X3X2 e [.%X|.4 3 uXpXNXhXfX* r SXAXDXDXDXDXDXDXDXDX",
"DXDXDXDXDXDXDXDX&XOX0 - A.v.D.3 2 `.&X&X[.{.0 5 2 2 4 XX!.OXvX#X*X&XoX3 3 4X3X5X2 1 {.%X X2 2 dXkXhXjXfX6 6 AXDXFXDXDXDXDXDXDXDX",
"DXDXDXDXDXDXDXDX}.{.9 < aXsXaXfXmX0 0 q |.[.%X}.[.~.(.XX.X@X*X#X}.|.^.* 2 hXgXfXfXfX< 9 q ^./.5 3 2 > , ;X^.DXDXDXDXDXDXDXDXDXDX",
"DXDXDXDXDXDXDXDX=XoX+ & fXfXfXhXhX, & + [.|.$X#X#X'.OX'..X@X#X$X].[.oX0 & hXfXfXfXfX< 9 + [.!.e 2 , < q 2X|.FXDXFXDXDXDXDXDXDXDX",
"DXDXDXDXDXDXDXDX-X~.j 0 dXpXpXpXpXr 9 h ^.-X&X=X&X}.}.}.}.&X@X#X}.[./.w 9 gXdXpXpXdXe w h OX'.q 0 e 9 a [.&XFXDXDXDXDXDXDXDXDXDX",
"DXDXDXDXDXDXDXDX&X'.oX2X0 5 - 2 3 /.1X-X+X[..X.X$X}.}.$X$X}..X.X=X}.}.|.1X2 2 - : 0 ;XoX+X=X=X'.+X[.XX}.FXDXFXFXDXDXDXDXDXDXDXDX",
"DXDXDXDXDXDXDXDX&X.X}.{.w 8 0 6 3 2X[.}.OX.X.X.X}.'.$X$X}.$X.X.X`.OX}.`.[.5 5 5 0 w 2X~.OX=X&X@XOX.X.X&XDXDXDXDXFXDXDXDXDXDXDXDX",
"DXDXDXDXDXDXDXDXFXSX=X}.|.{.^.^./.%X#X@X.X.XXXOX.X$X$X@X$X}..X.X.X'..X$X#X(././.[.|.|.}.}..X'.DXDXDXDXDXDXDXDXDXDXDXDXDXDXDXDXDX",
"DXDXDXDXDXDXDXDXFXSX=X#X@X#X@X@X.X@X*X#X.X.X.X.X}.}.#X$X&X}.OX.X.X.X'.#X#X&X.X&X@X@X$X$X'.}.}.DXDXDXDXDXDXDXDXSXSXDXDXDXDXDXDXDX",
"DXDXDXDXDXDXDXDXDXSX-X@X@X*X&X&X&X@X#X@X}.'.'.'.&X$X$X$X}.$X'.'.'.'.@X@X=X&X*X&X#X#X#X}.}.}.}.DXDXDXDXDXDXDXDXFXDXDXDXDXDXDXDXDX",
"DXDXDXDXDXDXDXDXSXDXFXDXDXDXDXDXDX'.'.OX$X'.$X$X'.@X$X@X$X&X@X$X$X}.'.'.'.@X@X@X'.'.DXDXDXSXDXDXDXDXSXDXDXDXDXDXDXDXDXDXDXDXDXDX",
"DXDXDXDXDXDXDXDXDXDXDXDXSXDXDXSXDX}.'.}.}.$X$X$X@X@X'.=X.X@X$X$X$X$XOX'.}.}.}.}.}.OXSXDXDXDXDXDXDXSXDXDXDXDXFXDXDXDXDXDXDXDXDXDX"
};
