/* XPM */
static char *result[] = {
/* columns rows colors chars-per-pixel */
"64 64 232 2 ",
"   c #030000",
".  c #0E0200",
"X  c #150000",
"o  c #260100",
"O  c #3E2E13",
"+  c #2E211B",
"@  c #313339",
"#  c #313032",
"$  c #4D2C01",
"%  c #452C07",
"&  c #542D01",
"*  c #5B2D01",
"=  c #592908",
"-  c #4C3503",
";  c #4D340B",
":  c #46380B",
">  c #483506",
",  c #543302",
"<  c #5A3201",
"1  c #533802",
"2  c #5B3904",
"3  c #54330B",
"4  c #5A330A",
"5  c #52390A",
"6  c #5F3D0F",
"7  c #492C19",
"8  c #463313",
"9  c #4B3314",
"0  c #463219",
"q  c #4A381C",
"w  c #573A15",
"e  c #622D01",
"r  c #662A07",
"t  c #633300",
"y  c #693C05",
"u  c #673F14",
"i  c #743F05",
"p  c #4A3622",
"a  c #4A3432",
"s  c #4E3628",
"d  c #5E471D",
"f  c #74430B",
"g  c #6C4315",
"h  c #774914",
"j  c #7A541A",
"k  c #73500E",
"l  c #4A422A",
"z  c #534025",
"x  c #504A32",
"c  c #785523",
"v  c #765733",
"b  c #604323",
"n  c #7D5C63",
"m  c #72657A",
"M  c #854F0D",
"N  c #855316",
"B  c #8B561D",
"V  c #8C591D",
"C  c #885618",
"Z  c #8C531A",
"A  c #8A5A22",
"S  c #865927",
"D  c #945E2B",
"F  c #A15838",
"G  c #98632B",
"H  c #9A6237",
"J  c #8A6330",
"K  c #B36E27",
"L  c #AD732D",
"P  c #AE792D",
"I  c #B4742C",
"U  c #BA752C",
"Y  c #B77226",
"T  c #AD7534",
"R  c #AC753B",
"E  c #AC793A",
"W  c #B37433",
"Q  c #B57934",
"!  c #BA7B34",
"~  c #B1753B",
"^  c #B37B3C",
"/  c #BA7E3B",
"(  c #BA7332",
")  c #AD6F26",
"_  c #C87C34",
"`  c #C47623",
"'  c #FC7738",
"]  c #A65B46",
"[  c #A87842",
"{  c #82656A",
"}  c #F27E44",
"|  c #BB843C",
" . c #B5843F",
".. c #DB8C2F",
"X. c #C58334",
"o. c #C4863F",
"O. c #CD883A",
"+. c #DB8E34",
"@. c #D58C3D",
"#. c #DA8D3B",
"$. c #D38935",
"%. c #DC9034",
"&. c #D7913E",
"*. c #D99238",
"=. c #E3943D",
"-. c #E18C39",
";. c #E7A73D",
":. c #BA8445",
">. c #B78E55",
",. c #AF915D",
"<. c #B1905D",
"1. c #B79A6C",
"2. c #B39C75",
"3. c #AF9C7E",
"4. c #CC8C44",
"5. c #C38C4B",
"6. c #C88B45",
"7. c #D48E43",
"8. c #D18F49",
"9. c #D98D47",
"0. c #CB9249",
"q. c #D39144",
"w. c #DB9243",
"e. c #D3924A",
"r. c #DC9548",
"t. c #C78E51",
"y. c #CA9354",
"u. c #CD9458",
"i. c #D49856",
"p. c #E98247",
"a. c #E09541",
"s. c #DBA25D",
"d. c #E5A644",
"f. c #E6A556",
"g. c #F8BC5D",
"h. c #F0AE55",
"j. c #C79965",
"k. c #C19374",
"l. c #D3896C",
"z. c #D4A56D",
"x. c #DCA566",
"c. c #CBA779",
"v. c #D8AC7A",
"b. c #D4B179",
"n. c #E5AA65",
"m. c #EFB86B",
"M. c #F4B76B",
"N. c #E0AD7D",
"B. c #EDBE7C",
"V. c #EABA76",
"C. c #F5BA77",
"Z. c #FBC25B",
"A. c #FBC278",
"S. c #E8C17E",
"D. c #6E6894",
"F. c #6B7FD6",
"G. c #7C8CAD",
"H. c #6C8BC6",
"J. c #7A8CDA",
"K. c #6A92CE",
"L. c #5D94FF",
"P. c #628EFF",
"I. c #6194FF",
"U. c #B4AA9C",
"Y. c #BDAD9C",
"T. c #BBAB97",
"R. c #B5A694",
"E. c #AEABA7",
"W. c #AEAEAD",
"Q. c #A7A8AB",
"!. c #B4ADA4",
"~. c #B2ADAC",
"^. c #BAACA5",
"/. c #ADB1AC",
"(. c #A7B1AB",
"). c #B1B0A4",
"_. c #BBB2A5",
"`. c #B2B2AD",
"'. c #BAB2AD",
"]. c #A7ADB1",
"[. c #ADAEB3",
"{. c #AFADB9",
"}. c #B1ABB1",
"|. c #B1AFBD",
" X c #ABB2B3",
".X c #ACB5B8",
"XX c #B3B3B4",
"oX c #B9B5B6",
"OX c #B29A80",
"+X c #C29180",
"@X c #CCAE87",
"#X c #D2B386",
"$X c #C3AC94",
"%X c #C1AB9D",
"&X c #D3AE89",
"*X c #ECBE82",
"=X c #E8BB88",
"-X c #EFBE93",
";X c #E0AF86",
":X c #C2B4A7",
">X c #F9C387",
",X c #E8C696",
"<X c #FDDA98",
"1X c #ECC996",
"2X c #DED2A0",
"3X c #EACBA4",
"4X c #E6D4A6",
"5X c #F7DAA8",
"6X c #F5D1AB",
"7X c #FFE2A3",
"8X c #FFE3AD",
"9X c #FFEDAD",
"0X c #FEE5B3",
"qX c #FFEBB3",
"wX c #FEE7BB",
"eX c #FEE9BC",
"rX c #FFF7B8",
"tX c #FFF8AA",
"yX c #838BDC",
"uX c #FEEBC3",
"iX c #FFE7C1",
"pX c #FFF7C5",
"aX c #FFFADA",
"sX c #FFEFD7",
"dX c #FFF4E2",
"fX c #FFFDE4",
"gX c #FFFCEC",
"hX c #EFF8FA",
"jX c #FFFEF4",
"kX c #F5FEFE",
"lX c none",
"zX c #F4F5F7",
/* pixels */
"lXlXlXlXlXlXlXlXlXlXlXlXlXlXlXjXjXjXlXkXlXlXlXlXlXlXjXjXjXlXkXlXlXjXlXlXzXjXlXlXlXlXkXkXlXjXjXlXlXlXlXlXlXlXlXlXlXlXlXlXlXlXlXlX",
"lXlXlXlXlXlXlXlXlXlXlXlXlXlXlXlXlXjXlXlXlXlXlXlXlXlXlXlXlXlXlXkXkXlXlXlXlXlXlXlXlXlXlXlXlXlXjXjXlXlXlXlXlXlXlXlXlXlXlXlXlXlXlXlX",
"lXlXlXlXlXlXlXlXlXlXlXlXlXlXlXlXlXlXlXlXlXlXjXlXlXlXlXlXlXlXlXlXkXlXlXlXkXlXjXjXlXjXlXlXlXlXlXlXlXkXlXlXlXlXlXlXlXlXlXlXlXlXlXlX",
"lXlXlXlXlXlXlXlXlXlXlXlXlXkXlXlXlXlXkXlXjXjXjXjXjXlXlXkXlXlXlXlXlXlXlXlXjXlXlXzXjXgXlXlXkXlXlXlXlXlXlXlXlXlXlXlXlXlXlXlXlXlXlXlX",
"lXlXlXlXlXlXlXlXlXlXlXlXlXlXlXlXlXlXlXjXgXfXgXgXlXlXkXlXlXlXlXjXjXjXjXjXlXlXjXjXgXfXjXlXlXlXlXlXlXlXlXlXlXlXlXlXlXlXlXlXlXlXlXlX",
"lXlXlXlXlXlXlXlXlXlXlXlXlXlXlXlXlXlXjXjX8 ; $ % aXjXlXlXzXlXjX; , , > : fXfXl ; $ ; 0 jXjXlXlXjXlXlXlXlXlXlXlXlXlXlXlXlXlXlXlXlX",
"lXlXlXlXlXlXlXlXlXlXlXlXjXlXjXlXlXlXjXfX5 , < & sXaXjXjXjXdXfX- , - - : aXfX$ t * , 8 jXlXlXlXlXlXlXlXlXlXlXlXlXlXlXlXlXlXlXlXlX",
"lXlXlXlXlXlXlXlXlXlXlXlXlXlXlXlXlXlXlXgX, , O.q.2 3 p gXfX0 8 rXrXtXtXrX1 , :.*.O., ; jXlXlXlXlXjXlXlXlXlXlXlXlXlXlXlXlXlXlXlXlX",
"lXlXlXlXlXlXlXlXlXlXlXlXlXlXlXlXlXlXlXgX& , &.a.y $ 0 gXfX8 ; pXrXrXtXrX- $ o...=.< 9 jXlXlXlXzXlXlXlXlXlXlXlXlXlXlXlXlXlXlXlXlX",
"lXlXlXlXlXlXlXlXlXlXlXlXlXlXlXlXkXlXjXgX3 ; &.q.9.9.y.3 , , - : > 1 - 2 y.e.4.+.&., 8 jXjXlXlXlXlXlXlXlXlXlXlXlXlXlXlXlXlXlXlXlX",
"lXlXlXlXlXlXlXlXlXlXlXlXlXlXlXlXkXlXdXsX& & @.q.@.#.q.< < 2 , ; , 2 , t e.#.q.#.&.* 6 gXgXlXlXjXlXlXlXlXlXlXlXlXlXlXlXlXlXlXlXlX",
"lXlXlXlXlXlXlXlXlXlXlXlXlXlXlXjXlXlX9 % n.n.#.7.X.$.X.E R W [ [ E ~ E T X.$.O.+.#.n.N.q 9 jXlXlXlXlXlXlXlXlXlXlXlXlXlXlXlXlXlXlX",
"lXlXlXlXlXlXlXlXlXlXlXlXlXlXlXjXlXjX9 6 f.f.#.@.O.X.X.T W W R R R W T P | X.4.#.#.h.i.9 ; lXlXjXlXlXlXlXlXlXlXlXlXlXlXlXlXlXlXlX",
"lXlXlXlXlXlXlXlXlXlXlXlXlXjXlXlXjXjX3 & f.h.#.7.o.| | P I U ( ( ( Y I L | | 7.#.#.h.n.3 , jXjXlXlXlXlXlXlXlXlXlXlXlXlXlXlXlXlXlX",
"lXlXlXlXlXlXlXlXlXlXlXlXlXlXkXjXjXfX< < 9.#.w.4.7X9X7X| _ _ _ $._ _ _  .7XqXi.r.9.9.e., , dXjXjXkXlXlXlXlXlXlXlXlXlXlXlXlXlXlXlX",
"lXlXlXlXlXlXlXlXlXlXlXlXlXhXhXdXfXsX* t 9.e.4.6.wXuXuX:.Y o.` ` ` 6./ >.eXuX>.r.4.8.6.* * aXfXsXhXkXlXlXlXlXlXlXlXlXlXlXlXlXlXlX",
"lXlXlXlXlXlXlXlXlXlXlXlXlXlXlXs ; 3 i.5.C.M.C.>XX . . N Z q.a.=.a.4.N v . . >XM.C.M.A.y.i.4 % s lXlXlXlXlXlXlXlXlXlXlXlXlXlXlXlX",
"lXlXlXlXlXlXlXlXlXlXlXlXlXlXjX3 < t w.i.M.C.C.>XX   . c M i.*...*.y.N v .   =XC.C.C.C.e.w.t t 3 jXjXlXlXlXlXlXlXlXlXlXlXlXlXlXlX",
"lXlXlXlXlXlXlXlXlXlXlXlXlXlXlX; < * C.C.8X8XB.B..     c N e.%.+.%.e.c v .   =XS.B.0X8XC.C.< < ; lXkXlXlXlXlXlXlXlXlXlXlXlXlXlXlX",
"lXlXlXlXlXlXlXlXlXlXlXlXlXzXlX% < * *XB.eX0X,XC..   X c N 9.#.*.=.9.c v X   1X*X=X0X0XC.*X< = ; lXlXlXlXlXlXlXlXlXlXlXlXlXlXlXlX",
"lXlXlXlXlXlXlXlXlXlXlXlXlXlXlX3 < , B.B.eXwX=X>Xo X o M V O.w.9.w.O.N j o X *X>X=XwX0XC.B.< * 3 lXlXlXlXlXlXlXlXlXlXlXlXlXlXlXlX",
"lXlXlXlXlXlXlXlXlXlXlXlXlXlXlX% < , B.B.uXeX>XA.N.u.f.;.d.&.q.q.q.w.d.d.f.u.M.C.*XuX0XB.B., < ; jXlXlXlXlXlXlXlXlXlXlXlXlXlXlXlX",
"lXlXlXlXlXlXlXlXlXlXlXlXlXlXlX; , , S.>XiXiX=XA.s.x.f.;.f.u.j.1.k.u.d.d.r.n.C.*X1XeXeXB.S., & ; lXlXlXlXlXlXlXlXlXlXlXlXlXlXlXlX",
"lXlXlXlXlXlXlXlXlXlXlXlXlXlXlXw $ , 9X5XuXwX6X<XC.M.M.g.C.y d z w i g.g.M.C.<X6X8XeXuX7X9X, $ w lXlXlXlXlXlXlXlXlXlXlXlXlXlXlXlX",
"lXlXlXlXlXlXlXlXlXlXlXlXlXlXzX0 ; % 8XqXsXuX5X<XV.V.M.Z.N.g a x l g g.g.m.m.<X7X8XuXeX<X8X> w 0 zXlXlXlXlXlXlXlXlXlXlXlXlXlXlXlX",
"lXlXlXlXlXlXlXlXlXlXlXlXlXzXhXdXfXaX% 1 pXrX1X4Xb.v.N.N J + @ @ @ + N h v.v.5X5X6XrXeXO % aXfXdXhXlXlXlXlXlXlXlXlXlXlXlXlXlXlXlX",
"lXlXlXlXlXlXlXlXlXlXlXlXlXkXkXjXgXgX9 - qX9X1X4XN.N.#Xj v # @ @ @ # h j #XN.5X5X5X9XpX3 8 gXgXgXkXlXlXlXlXlXlXlXlXlXlXlXlXlXlXlX",
"lXlXlXlXlXlXlXlXlXlXlXlXlXkXkXgXjXgX; , qX9X2X4Xb.b.#Xj S 7 7 7 7 7 c c #X#X4X4X<XqX8X4 ; gXgXjXkXlXlXlXlXlXlXlXlXlXlXlXlXlXlXlX",
"lXlXlXlXlXlXlXlXlXlXlXlXjXlXkX`.E.U.* 2 < 5 3X3X#Xb.$X2.k.} ' ' ' } OX1.#X@X2X3X3X5 < < , Y.(.(.kXjXlXlXlXlXlXlXlXlXlXlXlXlXlXlX",
"lXlXlXlXlXlXlXlXlXlXlXlXlXjXlX X(.)., & 2 2 3X1X&X&X&X1.k.} ' ' ' } 3.1.$X;X-X3X3X2 y , , ).(.(.lXjXlXlXlXlXlXlXlXlXlXlXlXlXlXlX",
"lXlXlXlXlXlXlXlXlXlXlXlXlXlXlXXX X/., , B A , , & , - 2.k.p.' ' } } 3.2.- , , $ , A A 4 ; ).(..XlXlXlXlXlXlXlXlXlXlXlXlXlXlXlXlX",
"lXlXlXlXlXlXlXlXlXlXlXlXlXlXkX X X).3 $ M Z 2 < , < * 2.l.' ' -.' } +X1.* , 2 < t N V 4 ; ).(. XlXjXlXlXlXlXlXlXlXlXlXlXlXlXlXlX",
"lXlXlXlXlXlXlXlXlXlXlXlXlXXX[.'.E.!.3 & L W r 2 { m { % = ] H J G ] , 8 { m 3 r r W ^ 4 3 ^.'.`. X`.lXlXlXlXlXlXlXlXlXlXlXlXlXlX",
"lXlXlXlXlXlXlXlXlXlXlXlXlXW. X:X_.T.* < Q Q r - m D.n % e F H J H F - O { D.q 3 4 ! ^ < , T._._.XXXXlXlXlXlXlXlXlXlXlXlXlXlXlXlX",
"lXlXlXlXlXlXlXlXlXlXlXlXlXoX~.s 8 w V j ! Q D G z 8 a H.H.yXJ.J.J.yXJ.G.a p h S B W / A A w w p W.W.lXlXlXlXlXlXlXlXlXlXlXlXlXlX",
"lXlXlXlXlXlXlXlXlXlXlXlXlXXXQ.% % 4 V C ) ) A G , - a L.P.P.P.P.P.P.L.J.a 3 h N h L T A C 4 ; 7 E.Q.lXlXlXlXlXlXlXlXlXlXlXlXlXlX",
"lXlXlXlXlXlXlXlXlXlXlXlXlXW.`.3 4 < Z V W I J G & = p H.K.H.yXJ.J.H.K.G.7 = Z j k I T B V e - ; '.].lXlXlXlXlXlXlXlXlXlXlXlXlXlX",
"lXlXlXlXlXlXlXlXlXlXlXlXlX X}.- * 4 A B W Y Y Q i g g , 3 * < < < , , , g h [ ~ I Y ~ A A < , 1 W. XlXlXlXlXlXlXlXlXlXlXlXlXlXlX",
"lXlXlXlXlXlXlXlXlXlXlXlXlX X~.; * 4 A B ( Y Y W i f g 3 3 , < , , , < < h f T I K K ~ A V 4 1 - }.[.lXlXlXlXlXlXlXlXlXlXlXlXlXlX",
"lXlXlXlXlXlXlXlXlXlXlXlXlX[.}.- * * A B W I w.q.O.6.t.z.z.c.c.c.c.c.c.z.j.u.r.$.$.W ~ A V * 1 - }.[.lXlXlXlXlXlXlXlXlXlXlXlXlXlX",
"lXlXlXlXlXlXlXlXlXlXlXlXlXXX[.- = * V B ~ W 7.@.7.@.4.s.z.z.c.z.z.z.z.z.u.i.@.#.@.T [ Z V e 3 - }. XlXlXlXlXlXlXlXlXlXlXlXlXlXlX",
"lXlXlXlXlXlXlXlXlXlXlXlXlX X~.> = e ~ R e e T I Y Y Y U | ~ :.Q | Q ^ :.^ Q U K Y t r ~ W * 1 > ~./.lXlXlXlXlXlXlXlXlXlXlXlXlXlX",
"lXlXlXlXlXlXlXlXlXlXlXlXlXXX~.; , e T ~ * < Q P I I Y K U W  .! _ / / ^ T ~ ( I ! < r Q T e 1 > }.W.lXlXlXlXlXlXlXlXlXlXlXlXlXlX",
"lXlXlXlXlXlXlXlXlXlXlXlXlX~.}.: * e W W * 4 Q ! I W W L L | / ! / [ ^ ^ ^ ~ ! U Q < e W I t 1 : ~.~.lXlXlXlXlXlXlXlXlXlXlXlXlXlX",
"lXlXlXlXlXlXlXlXlXlXlXlXlX'.}.: = e I ~ * , r.w.( T R * * A A A A A * * R T @.#.e.3 e W I e - : }.~.lXlXlXlXlXlXlXlXlXlXlXlXlXlX",
"lXlXlXlXlXlXlXlXlXlXlXlXlX}.E.: * e I W * 3 9.=._ L R & & J S S S J t * R Y #.-.q., e ( I e 1 ; E.~.lXlXlXlXlXlXlXlXlXlXlXlXlXlX",
"lXlXlXlXlXlXlXlXlXlXlXlXlX}.'.; < e W ~ < < 7.a._ ) R * & S V A S S 2 * R K @.9.q.< e W ( e & > ^.}.lXlXlXlXlXlXlXlXlXlXlXlXlXlX",
"lXlXlXlXlXlXlXlXlXlXlXlXlX}.E.% $ t R R * , 7.#.U ) T & & S A C A S & * T ) O.#.q., t ~ R t ; O E.Q.lXlXlXlXlXlXlXlXlXlXlXlXlXlX",
"lXlXlXlXlXlXlXlXlXlXlXlXlX].].U.$Xc.& t , 3 q.%.$.O.>., $ , < < < < & * 5.O.+...q.3 & t = c.R.U.[. XlXlXlXlXlXlXlXlXlXlXlXlXlXlX",
"lXlXlXlXlXlXlXlXlXlXlXlXlX X.X[.^.$X& < , w q.+.$.*.6., , - 4 , , - , * 5.@.+...e.3 , , & %XQ.{.|.(.lXlXlXlXlXlXlXlXlXlXlXlXlXlX",
"lXlXlXlXlXlXlXlXlXlXlXlXlX.X].|.~.T., 1 , 3 q.+.+.&.t.< 4 & 4 * 4 , , t 0.&.+...q.3 < 1 , T.oX|.]./.lXlXlXlXlXlXlXlXlXlXlXlXlXlX",
"lXlXlXlXlXlXlXlXlXlXlXlXjXjXlX{.^.!.5 , & = q.#.@.&.t.t 4 u u g u g * t t.q.#.#.7.4 , 2 ; ^.[.|.lXjXlXlXlXlXlXlXlXlXlXlXlXlXlXlX",
"lXlXlXlXlXlXlXlXlXlXlXlXlXjXlX[.W.!.0 g 4 2 y.e.8.8.y.< 4 u u g u g & * y.8.8.8.y.2 & 9 0 ).}.XXjXjXlXlXlXlXlXlXlXlXlXlXlXlXlXlX",
"lXlXlXlXlXlXlXlXlXlXlXlXlXjXjX X/.W.%XOX, $ >.:.5.5.>.4 , 4 < < & 4 & < >.5.5.>.>.$ 4 T.Y.W. X XlXlXlXlXlXlXlXlXlXlXlXlXlXlXlXlX",
"lXlXlXlXlXlXlXlXlXlXlXlXlXlXlX X X X`.%Xw - ,.>.>.>.>.1 - , , 2 1 2 , - >.>.<.,.,.- 9 U.}. X(.(.lXlXlXlXlXlXlXlXlXlXlXlXlXlXlXlX",
"lXlXlXlXlXlXlXlXlXlXlXlXlXjXlXlXlXlX!.Y.% 1 uXeX0XqXqX- 8 T.T.U.T.T.% - 9XqXwXiXiX, 9 ^.E.lXlXlXjXlXlXlXlXlXlXlXlXlXlXlXlXlXlXlX",
"lXlXlXlXlXlXlXlXlXlXlXlXlXlXlXlXlXlX~.%X8 % eXwXqXqX9XO O _.XXQ.XX_.8 5 qXqXqXeXeX% O !.'.lXlXlXlXlXlXlXlXlXlXlXlXlXlXlXlXlXlXlX",
"lXlXlXlXlXlXlXlXlXlXlXlXlXjXlXlXlXlXoXU.q 8 0X8X8X8X8X; l E.oX X.XU.q w 0X8X8X8X0X9 s ).oXlXlXlXlXjXlXlXlXlXlXlXlXlXlXlXlXlXlXlX",
"lXlXlXlXlXlXlXlXlXlXlXlXlXlXlXlXlXlXW.!._.:X& < & & 7 :X'././..X XW.Y.$X9 & , , & '.'.`.E.lXlXlXlXlXlXlXlXlXlXlXlXlXlXlXlXlXlXlX",
"lXlXlXlXlXlXlXlXlXlXlXlXlXlXlXlXlXjX`.W.oX}.0 8 7 q p !.`./.XX X.X`.'.^.p q 9 ; 9 [.`.E.`.jXlXlXlXlXlXlXlXlXlXlXlXlXlXlXlXlXlXlX",
"lXlXlXlXlXlXlXlXlXlXlXlXlXlXlXlXlXjX/. X{.{.E.).~.~.}.}.~./.)./.E.~.XX}.}.~.~.!.E.{. X`.W.lXjXlXlXlXlXlXlXlXlXlXlXlXlXlXlXlXlXlX",
"lXlXlXlXlXlXlXlXlXlXlXlXlXlXlXlXlXjXW.[.[. X/. X X}.}.XXW.`.E.).)./.}.}.{.[.[.(. X{.}. XW.jXlXlXlXlXlXlXlXlXlXlXlXlXlXlXlXlXlXlX",
"lXlXlXlXlXlXlXlXlXlXlXlXlXlXlXlXlXlXlXlXlXlX X[. X[. X}.W.~.~.`.`.`.W.W. X[. X[.[.lXlXlXlXlXlXlXlXlXlXlXlXlXlXlXlXlXlXlXlXlXlXlX",
"lXlXlXlXlXlXlXlXlXlXlXlXlXlXlXlXlXlXlXlXlXjX~.~.~.~.`./.`.W./.~.W./.`.W.~./.~.~.~.lXjXlXlXlXlXlXlXlXlXlXlXlXlXlXlXlXlXlXlXlXlXlX"
};
