/* XPM */
static char *result[] = {
/* columns rows colors chars-per-pixel */
"64 64 83 1 ",
"  c #255C27",
". c #265E28",
"X c #285F28",
"o c #276229",
"O c #2A652A",
"+ c #2B6B2C",
"@ c #336D2B",
"# c #386F2A",
"$ c #2F702D",
"% c #35732D",
"& c #3B752C",
"* c #3E792D",
"= c #3C7C30",
"- c #42772B",
"; c #447C2D",
": c #4A7F2B",
"> c #417E31",
", c #46822E",
"< c #4C832D",
"1 c #4F892F",
"2 c #51862D",
"3 c #558A2E",
"4 c #598E2E",
"5 c #5C922F",
"6 c #448332",
"7 c #498632",
"8 c #4D8B34",
"9 c #528E34",
"0 c #549237",
"q c #5A9536",
"w c #5D9836",
"e c #569438",
"r c #5A9638",
"t c #5E993A",
"y c #62952F",
"u c #66992F",
"i c #6A9B2F",
"p c #609631",
"a c #649D35",
"s c #6A9D30",
"d c #639D3A",
"f c #689F3C",
"g c #70A02F",
"h c #6BA235",
"j c #67A03B",
"k c #6CA33C",
"l c #72A633",
"z c #78A731",
"x c #75A934",
"c c #7BAD32",
"v c #70A63B",
"b c #74A93D",
"n c #7BAE3B",
"m c #7FB033",
"M c #639B44",
"N c #679F48",
"B c #6FA449",
"V c #75AA40",
"C c #7BAE41",
"Z c #7EB042",
"A c #80AF31",
"S c #84B332",
"D c #89B732",
"F c #8CBA35",
"G c #84B43B",
"H c #88B739",
"J c #8DBA3A",
"K c #92BE3A",
"L c #96C13E",
"P c #83B443",
"I c #88B744",
"U c #8CBA45",
"Y c #85B549",
"T c #92BE45",
"R c #92BF48",
"E c #96C144",
"W c #9BC543",
"Q c #9FC847",
"! c #95C148",
"~ c #9AC54A",
"^ c #9FC84A",
"/ c #A0C847",
"( c #A5CC4C",
/* pixels */
"4;zDDc<;4DD*D;<DD,mDD,*<Su1;*%*<5gmDSySDDDy25z-3<DDDg<uDDDDDDDDD",
"yD<@@&;;<,3<D13DDc5Dcy5#iSSSAmAAxu4231<cSS,Scy%*<uDDc544DDz-<3<,",
"DD<&&;<5<;g-3z<,5z<Dg#3;*lhhjhhjhlDmlhj38w0qmDz3c&3DS4Dg;441ui5i",
"DD&%*-%3g*&c;23Dmu&144<D7aqqqq00qhmlq000eeee6,y;*i;DD3DD*5<+*<<,",
"Sc&<5<;&hD2&;z*;919llha80nZZCB000whhr00rVCZZvq1,&&yD**<;uDu3*##<",
"4A*&-&ui&DD;%;DDDDlqe00ejU((~V00000e000jU(^^nehmDz<%*DDg@1gDDDA<",
"y<y@+@;<%<<%5ScllllhhhvbP~((^Phhhw0qjhhb!(((!Vbxlxx;DDc;+&;3ycDg",
"DSg3u%&g<3D<DShqrrhmmDJE((((^KDSmlrhxSDFQ(((^^Ztqqj<DD,2D#1gg5,3",
"y%44;40>*2l7xxvVbbnSDDLW(((LLLDDDchlmDDLLLL(((Zwqjhh9l4<D<Au41<;",
";@S;D<9q9qqMBBY!!~LDDDLQ(((LLDDDDDmmDDDDDLQ(((Zdhcxa00a*D3SDDDD3",
"<&&ys8qtjkBkjkZU~(LLLDLL//LLDDDDDDLDDDDDDDLQLWmshSchaaw0&;D22;33",
"h&5-%srkI!UUGcvkE((QLDDFLLDDDDDDDDDDDDDDDSLLDLLcmDDmmclh8;w-5&&D",
"3u&D%aqv^((/LHxamQQLLDDDDDDDDDDDDDDDDDDDDDDDDDDDFFLFFHmhqh;;zDA3",
"4A-D<<qk~(((QEGcALLLLDDDDDDDDDDDDDDDDDDDDDDDDDDSLLWWWJmhqhS&1zD<",
"DS<l,wqkR~(((/LDDDDDDDDDDDDDDDDDDDDDDDDDDDDDDDDLL(((WJchwhm;Dy<c",
"DDs2jq0tBP^((QLDDDDDDDDDDDDDDDDDDDDDDDDDDDDDDDLL/(((~nhxzhh1DDDD",
"DSSlrrrrekU^(QLDDDDDDDDDDDDDDDDDDDDDDDDDDDDDDDLQ(((/!kwcGltjwDDD",
"**qkPPPCxxbPJLFDDDDDDDDDDDDDDDDDDDDDDDDDDDDDDSLLQ(~IbxxJEUZb1hSz",
"S9qC(((WFmwwxDDDDDDDDDDDDDDDDDDDDDDDDDDDDDDDDDDDL^UjaxFW(((Zq0,,",
"9fCR(/EKDSxlSHDDDDDDDDDDDDDDDDDDDDDDDDDDDDDDDDDDFLJblmLW(((!nbhc",
"dP(((WFFDDDDDDDDDDDDDDDDDDDDDDDDDDDDDDDDDDDDDDDDFDDDSDFW(((((Pdh",
"tP(/WKFDDDKLLLDDDDDDDDDDDDDDDDDDDDDDDDDDDDDDDDDDDDDDDDDLQ((((Pta",
"tP(EFFDDDLW(/WKDDDDDDDDDDDDDDDDDDDDDDDDDDDDDDDDDDDDDDDFFKE(((Ptj",
"rVUHDDDFLL/((/LDDDDDDDDDDDDDDDDDDDDDDDDDDDDDDDDDFLLFFFDDFLW!UVwa",
"edfxSDDK~/((((LDDDDDDDDDDDDDDDDDDDDDDDDDDDDDDDDDLQ//LFDDDFFnjtqa",
"w98acccJ^(((/ELDDDDDFLLFFFDDDDDDDDDDDDDDDDDDDDDLL(((QLLFDcgaqqah",
"l9=7aadn~(((EKFDDDDDLL((LFDDDDDDDDDDDDDDDDDDDDLQ/((((QWLSu;80axm",
"c0%7dddbU~^QKDDDDDFFW(((WLDFDLFLLDDDDDLDDLDDDDLLQ(((((/LDw*70jSD",
"Sa7jYUIPVnJJJDDDDDLLQ(((QLDLLW(/LLDDDDLLQLLDDDDLLLL/(((QWmaw0hSD",
"chdP(((IjhmDDDDDDDW(((((LLLW(((((LLLDLL(((LFDDDDDDLQ^^((WLDlqhmS",
"lnP!(/EHxcSDDDDDDDL(((((QLFW(((((/LLDL/(((QLLDDDDDFLLLLLLFDmllhz",
"tP(((WFDDDDDDDDFDDL/((((WLFL(((((((LLL/((((QLDDDDDDDDDDDDDDDDlqj",
"wU(((LLDDDDDLWLLnlH(((QLLFDLWQ(((((LLDLL((((LLDDDDDDSxxmDDDDDxea",
"tE(((LDDDDDLW((^CeZ(((WDDDDDLQ(((((LLDDLL(((LLDDDDDDmawxDDDDDxwa",
"tP(LLLDDDLLLQ(((IhbZEELLDDDDDL((((LLDDDLLLLLmlcDLLLLHxhlxmDDDxwh",
"tPQLDLDDmLQ(((((LmvtlSDmDDDDLL(((/LLDDDDmLLmlqhDLL(LLLmhwxDDDxea",
"tbUHDmcmSLL(((QLLDl0hmLLLLLDLLLLLLDDDDDDLLLLmaxmLL(((LLxasahxhea",
"etjbDlwhmLL((QLLLml0hmLLWQLLDDLDDLDDDDDLL(QQLmDDL(((((LLc5=7weeh",
"w08wchqhmLL(LLLDLmxalFL(((QLLDDDDDDDDDcmE(((ELDDLLL((((Lm5==60wl",
"x8=8aq0amDLLLLDDmLmmLW((((((LLDDDDDDDmsl!(((QELLLLLL(((LSa8==0lm",
"m1$=008wxmDDDDSmmDDDLL(((((((WDDDDDmmxhkUQ((((EmSSLLLLLLSh06$1hm",
"m1$=07=,wlmDDSxacDmLLL(((((((LDDDDDmhhvmDLQ(((EaxSDLLLLDSh098,,p",
"c,%,8=$=8wxmmmaegmSmL!(((((QQLmmmmmlwacDDDL(QQmahcSSLDDDSh0006$1",
"*lu1=$+=0eahhawephhhhvL((((LLnhhhhhaeamDDDLLLLHlhhxSDDDDSh000,$,",
",Dm4$++=8e00000000000ev!((QLDheeqq000acDDDDDDDDDxwamDDDDmh000=$1",
",DD4+$=780000000008=9axLLLLLmmhlla000acDDDDDDDDmxwamDDSxhw08==$,",
",Dm3o=000000000000=$8cDDDDDDDDDDDlq00acDDDDDDDDLxwamDDma000=$+$$",
"5gg< %800066800076,=qmDDDDDDDDDDDh779waxlxmDDDxwq0whlxhw98,11,==",
"2#%# #1007=%8008>$=8jmDDDDDDDDDDLa$=80eerwxDDDw==8qq0eee0=$4l$cD",
"D#@@#:,*,=%%6000=+>0wlmSDDDDDmxxl0$=80000ehlxx1$=80000009=+qs,,D",
"Dm<#<3#O$$+%7000=+=9rqhSDDDDmlwrq,$=8e000eqwww6$=80000009=$44#$3",
"DDD&@@OO+++$=66>%+=900wlxmxxxa0007==68800000876%6800986,66,1u,DS",
"3*;*+i23+o++$$$+O.&000qwwwwwwt000086==8000006%6780008=$$@<3#g3uD",
"Szi<,;Dy@oO+++oo o%680000q00000e088=$$688787=%6000086$oo ,c,s3&&",
"DDD**uDy@XO+OoOOO+++=8e0000e0e0e08=$$$%%%%%==780008=$+o X5D,DDD5",
"Dzg;4#Du-@+O..O+++Oo%,78888888888=$+++$+$+++=888886$$ooo#uD;DDDD",
"<5y@<4Dzu2@  XO@+++o@@%*=%==***-=$++o+o+++++@#%***#OX XO:<<*&yDD",
"&5;<;@<&@#OOOOOO+++++ oo+++++++O+++oooo+++++o o++++XXXO4DDDDA2#,",
"mi5<3+@;@i@@43&ooOO@oo oo+++++XX+++oooooXXXXoOOooo@:--@#<3zDDDg5",
"A*<<u;*52-@@Dc:   oOo   o++++o   o++$ooo    o+Oo  -&&c53gDy-5DD<",
"DD4<;;-iSDD2&-&-<3-X     ooo#-234-OXooo     oo&#23*z,Dz,&cAS5#,A",
"D4zD4%&u<,y%@3gg3:4X       oX4ADA5O oo        2*AD3A<DDA&u44uugD",
"D4<1;c<;3Sg:&%-y3&g#:<<<<<,,2gDDDg3<<<,,<:<<<:44gDD*54DD,DDDD5cD",
"DDDDA4uD<-&@%@&-y4&#4c2<2iccADDDDAccccczAzAzz-;4y,3D5#*z<DDc32DD"
};
